%TF.GenerationSoftware,KiCad,Pcbnew,no-vcs-found-75b21d0~61~ubuntu14.04.1*%
%TF.CreationDate,2017-12-18T14:02:50+05:30*%
%TF.ProjectId,STM8_Flasher,53544D385F466C61736865722E6B6963,rev?*%
%TF.SameCoordinates,Original*%
%TF.FileFunction,Legend,Top*%
%TF.FilePolarity,Positive*%
%FSLAX46Y46*%
G04 Gerber Fmt 4.6, Leading zero omitted, Abs format (unit mm)*
G04 Created by KiCad (PCBNEW no-vcs-found-75b21d0~61~ubuntu14.04.1) date Mon Dec 18 14:02:50 2017*
%MOMM*%
%LPD*%
G01*
G04 APERTURE LIST*
%ADD10C,0.300000*%
%ADD11C,0.120000*%
%ADD12C,0.150000*%
G04 APERTURE END LIST*
D10*
X133028571Y-134607142D02*
X133028571Y-135464285D01*
X133028571Y-135035714D02*
X131528571Y-135035714D01*
X131742857Y-135178571D01*
X131885714Y-135321428D01*
X131957142Y-135464285D01*
X133028571Y-133892857D02*
X133028571Y-133607142D01*
X132957142Y-133464285D01*
X132885714Y-133392857D01*
X132671428Y-133250000D01*
X132385714Y-133178571D01*
X131814285Y-133178571D01*
X131671428Y-133250000D01*
X131600000Y-133321428D01*
X131528571Y-133464285D01*
X131528571Y-133750000D01*
X131600000Y-133892857D01*
X131671428Y-133964285D01*
X131814285Y-134035714D01*
X132171428Y-134035714D01*
X132314285Y-133964285D01*
X132385714Y-133892857D01*
X132457142Y-133750000D01*
X132457142Y-133464285D01*
X132385714Y-133321428D01*
X132314285Y-133250000D01*
X132171428Y-133178571D01*
X132885714Y-132535714D02*
X132957142Y-132464285D01*
X133028571Y-132535714D01*
X132957142Y-132607142D01*
X132885714Y-132535714D01*
X133028571Y-132535714D01*
X131528571Y-131107142D02*
X131528571Y-131821428D01*
X132242857Y-131892857D01*
X132171428Y-131821428D01*
X132100000Y-131678571D01*
X132100000Y-131321428D01*
X132171428Y-131178571D01*
X132242857Y-131107142D01*
X132385714Y-131035714D01*
X132742857Y-131035714D01*
X132885714Y-131107142D01*
X132957142Y-131178571D01*
X133028571Y-131321428D01*
X133028571Y-131678571D01*
X132957142Y-131821428D01*
X132885714Y-131892857D01*
X131528571Y-130107142D02*
X131528571Y-129964285D01*
X131600000Y-129821428D01*
X131671428Y-129750000D01*
X131814285Y-129678571D01*
X132100000Y-129607142D01*
X132457142Y-129607142D01*
X132742857Y-129678571D01*
X132885714Y-129750000D01*
X132957142Y-129821428D01*
X133028571Y-129964285D01*
X133028571Y-130107142D01*
X132957142Y-130250000D01*
X132885714Y-130321428D01*
X132742857Y-130392857D01*
X132457142Y-130464285D01*
X132100000Y-130464285D01*
X131814285Y-130392857D01*
X131671428Y-130321428D01*
X131600000Y-130250000D01*
X131528571Y-130107142D01*
X131528571Y-128678571D02*
X131528571Y-128535714D01*
X131600000Y-128392857D01*
X131671428Y-128321428D01*
X131814285Y-128250000D01*
X132100000Y-128178571D01*
X132457142Y-128178571D01*
X132742857Y-128250000D01*
X132885714Y-128321428D01*
X132957142Y-128392857D01*
X133028571Y-128535714D01*
X133028571Y-128678571D01*
X132957142Y-128821428D01*
X132885714Y-128892857D01*
X132742857Y-128964285D01*
X132457142Y-129035714D01*
X132100000Y-129035714D01*
X131814285Y-128964285D01*
X131671428Y-128892857D01*
X131600000Y-128821428D01*
X131528571Y-128678571D01*
X133028571Y-126392857D02*
X132028571Y-126392857D01*
X132171428Y-126392857D02*
X132100000Y-126321428D01*
X132028571Y-126178571D01*
X132028571Y-125964285D01*
X132100000Y-125821428D01*
X132242857Y-125750000D01*
X133028571Y-125750000D01*
X132242857Y-125750000D02*
X132100000Y-125678571D01*
X132028571Y-125535714D01*
X132028571Y-125321428D01*
X132100000Y-125178571D01*
X132242857Y-125107142D01*
X133028571Y-125107142D01*
X133028571Y-124392857D02*
X132028571Y-124392857D01*
X132171428Y-124392857D02*
X132100000Y-124321428D01*
X132028571Y-124178571D01*
X132028571Y-123964285D01*
X132100000Y-123821428D01*
X132242857Y-123750000D01*
X133028571Y-123750000D01*
X132242857Y-123750000D02*
X132100000Y-123678571D01*
X132028571Y-123535714D01*
X132028571Y-123321428D01*
X132100000Y-123178571D01*
X132242857Y-123107142D01*
X133028571Y-123107142D01*
X131000000Y-139000000D02*
X131000000Y-119500000D01*
X128500000Y-139000000D02*
X133700000Y-139000000D01*
X128500000Y-119500000D02*
X133700000Y-119500000D01*
X131000000Y-119500000D02*
X131586421Y-120626504D01*
X131000000Y-119500000D02*
X130413579Y-120626504D01*
X131000000Y-139000000D02*
X131586421Y-137873496D01*
X131000000Y-139000000D02*
X130413579Y-137873496D01*
X98214285Y-148528571D02*
X99142857Y-148528571D01*
X98642857Y-149100000D01*
X98857142Y-149100000D01*
X99000000Y-149171428D01*
X99071428Y-149242857D01*
X99142857Y-149385714D01*
X99142857Y-149742857D01*
X99071428Y-149885714D01*
X99000000Y-149957142D01*
X98857142Y-150028571D01*
X98428571Y-150028571D01*
X98285714Y-149957142D01*
X98214285Y-149885714D01*
X99857142Y-150028571D02*
X100142857Y-150028571D01*
X100285714Y-149957142D01*
X100357142Y-149885714D01*
X100500000Y-149671428D01*
X100571428Y-149385714D01*
X100571428Y-148814285D01*
X100500000Y-148671428D01*
X100428571Y-148600000D01*
X100285714Y-148528571D01*
X100000000Y-148528571D01*
X99857142Y-148600000D01*
X99785714Y-148671428D01*
X99714285Y-148814285D01*
X99714285Y-149171428D01*
X99785714Y-149314285D01*
X99857142Y-149385714D01*
X100000000Y-149457142D01*
X100285714Y-149457142D01*
X100428571Y-149385714D01*
X100500000Y-149314285D01*
X100571428Y-149171428D01*
X101214285Y-149885714D02*
X101285714Y-149957142D01*
X101214285Y-150028571D01*
X101142857Y-149957142D01*
X101214285Y-149885714D01*
X101214285Y-150028571D01*
X102214285Y-148528571D02*
X102357142Y-148528571D01*
X102500000Y-148600000D01*
X102571428Y-148671428D01*
X102642857Y-148814285D01*
X102714285Y-149100000D01*
X102714285Y-149457142D01*
X102642857Y-149742857D01*
X102571428Y-149885714D01*
X102500000Y-149957142D01*
X102357142Y-150028571D01*
X102214285Y-150028571D01*
X102071428Y-149957142D01*
X102000000Y-149885714D01*
X101928571Y-149742857D01*
X101857142Y-149457142D01*
X101857142Y-149100000D01*
X101928571Y-148814285D01*
X102000000Y-148671428D01*
X102071428Y-148600000D01*
X102214285Y-148528571D01*
X103642857Y-148528571D02*
X103785714Y-148528571D01*
X103928571Y-148600000D01*
X104000000Y-148671428D01*
X104071428Y-148814285D01*
X104142857Y-149100000D01*
X104142857Y-149457142D01*
X104071428Y-149742857D01*
X104000000Y-149885714D01*
X103928571Y-149957142D01*
X103785714Y-150028571D01*
X103642857Y-150028571D01*
X103500000Y-149957142D01*
X103428571Y-149885714D01*
X103357142Y-149742857D01*
X103285714Y-149457142D01*
X103285714Y-149100000D01*
X103357142Y-148814285D01*
X103428571Y-148671428D01*
X103500000Y-148600000D01*
X103642857Y-148528571D01*
X105071428Y-148528571D02*
X105214285Y-148528571D01*
X105357142Y-148600000D01*
X105428571Y-148671428D01*
X105500000Y-148814285D01*
X105571428Y-149100000D01*
X105571428Y-149457142D01*
X105500000Y-149742857D01*
X105428571Y-149885714D01*
X105357142Y-149957142D01*
X105214285Y-150028571D01*
X105071428Y-150028571D01*
X104928571Y-149957142D01*
X104857142Y-149885714D01*
X104785714Y-149742857D01*
X104714285Y-149457142D01*
X104714285Y-149100000D01*
X104785714Y-148814285D01*
X104857142Y-148671428D01*
X104928571Y-148600000D01*
X105071428Y-148528571D01*
X107357142Y-150028571D02*
X107357142Y-149028571D01*
X107357142Y-149171428D02*
X107428571Y-149100000D01*
X107571428Y-149028571D01*
X107785714Y-149028571D01*
X107928571Y-149100000D01*
X108000000Y-149242857D01*
X108000000Y-150028571D01*
X108000000Y-149242857D02*
X108071428Y-149100000D01*
X108214285Y-149028571D01*
X108428571Y-149028571D01*
X108571428Y-149100000D01*
X108642857Y-149242857D01*
X108642857Y-150028571D01*
X109357142Y-150028571D02*
X109357142Y-149028571D01*
X109357142Y-149171428D02*
X109428571Y-149100000D01*
X109571428Y-149028571D01*
X109785714Y-149028571D01*
X109928571Y-149100000D01*
X110000000Y-149242857D01*
X110000000Y-150028571D01*
X110000000Y-149242857D02*
X110071428Y-149100000D01*
X110214285Y-149028571D01*
X110428571Y-149028571D01*
X110571428Y-149100000D01*
X110642857Y-149242857D01*
X110642857Y-150028571D01*
X85000000Y-148000000D02*
X124000000Y-148000000D01*
X85000000Y-144000000D02*
X85000000Y-150700000D01*
X124000000Y-144000000D02*
X124000000Y-150700000D01*
X124000000Y-148000000D02*
X122873496Y-148586421D01*
X124000000Y-148000000D02*
X122873496Y-147413579D01*
X85000000Y-148000000D02*
X86126504Y-148586421D01*
X85000000Y-148000000D02*
X86126504Y-147413579D01*
D11*
%TO.C,J2*%
X102370000Y-134070000D02*
X102370000Y-135400000D01*
X101040000Y-134070000D02*
X102370000Y-134070000D01*
X99770000Y-134070000D02*
X99770000Y-136730000D01*
X99770000Y-136730000D02*
X94630000Y-136730000D01*
X99770000Y-134070000D02*
X94630000Y-134070000D01*
X94630000Y-134070000D02*
X94630000Y-136730000D01*
%TO.C,R8*%
X111880000Y-134400000D02*
X111880000Y-135600000D01*
X110120000Y-135600000D02*
X110120000Y-134400000D01*
D12*
%TO.C,U1*%
X109450000Y-130225000D02*
X109450000Y-125775000D01*
X102550000Y-131750000D02*
X102550000Y-125775000D01*
D11*
%TO.C,C1*%
X103650000Y-134500000D02*
X103650000Y-135500000D01*
X105350000Y-135500000D02*
X105350000Y-134500000D01*
%TO.C,C2*%
X107850000Y-135500000D02*
X107850000Y-134500000D01*
X106150000Y-134500000D02*
X106150000Y-135500000D01*
%TO.C,C3*%
X108150000Y-134500000D02*
X108150000Y-135500000D01*
X109850000Y-135500000D02*
X109850000Y-134500000D01*
%TO.C,C4*%
X95500000Y-130850000D02*
X96500000Y-130850000D01*
X96500000Y-129150000D02*
X95500000Y-129150000D01*
%TO.C,C5*%
X91050000Y-130750000D02*
X92050000Y-130750000D01*
X92050000Y-129050000D02*
X91050000Y-129050000D01*
%TO.C,C6*%
X91050000Y-136750000D02*
X92050000Y-136750000D01*
X92050000Y-135050000D02*
X91050000Y-135050000D01*
%TO.C,D1*%
X114300000Y-136800000D02*
X114300000Y-134000000D01*
X115700000Y-136800000D02*
X115700000Y-134000000D01*
X114300000Y-136800000D02*
X115700000Y-136800000D01*
%TO.C,D2*%
X116300000Y-136800000D02*
X117700000Y-136800000D01*
X117700000Y-136800000D02*
X117700000Y-134000000D01*
X116300000Y-136800000D02*
X116300000Y-134000000D01*
%TO.C,J1*%
X119670000Y-133370000D02*
X122330000Y-133370000D01*
X119670000Y-128230000D02*
X119670000Y-133370000D01*
X122330000Y-128230000D02*
X122330000Y-133370000D01*
X119670000Y-128230000D02*
X122330000Y-128230000D01*
X119670000Y-126960000D02*
X119670000Y-125630000D01*
X119670000Y-125630000D02*
X121000000Y-125630000D01*
%TO.C,J3*%
X88630000Y-131830000D02*
X85970000Y-131830000D01*
X88630000Y-134430000D02*
X88630000Y-131830000D01*
X85970000Y-134430000D02*
X85970000Y-131830000D01*
X88630000Y-134430000D02*
X85970000Y-134430000D01*
X88630000Y-135700000D02*
X88630000Y-137030000D01*
X88630000Y-137030000D02*
X87300000Y-137030000D01*
%TO.C,R1*%
X116600000Y-125880000D02*
X115400000Y-125880000D01*
X115400000Y-124120000D02*
X116600000Y-124120000D01*
%TO.C,R2*%
X115400000Y-122120000D02*
X116600000Y-122120000D01*
X116600000Y-123880000D02*
X115400000Y-123880000D01*
%TO.C,R3*%
X95400000Y-131120000D02*
X96600000Y-131120000D01*
X96600000Y-132880000D02*
X95400000Y-132880000D01*
%TO.C,R4*%
X99880000Y-130400000D02*
X99880000Y-131600000D01*
X98120000Y-131600000D02*
X98120000Y-130400000D01*
%TO.C,R5*%
X112120000Y-135600000D02*
X112120000Y-134400000D01*
X113880000Y-134400000D02*
X113880000Y-135600000D01*
%TO.C,R6*%
X111400000Y-122120000D02*
X112600000Y-122120000D01*
X112600000Y-123880000D02*
X111400000Y-123880000D01*
%TO.C,R7*%
X112600000Y-125880000D02*
X111400000Y-125880000D01*
X111400000Y-124120000D02*
X112600000Y-124120000D01*
%TO.C,SW1*%
X95000000Y-128500000D02*
X99500000Y-128500000D01*
X93750000Y-124500000D02*
X93750000Y-126000000D01*
X99500000Y-122000000D02*
X95000000Y-122000000D01*
X100750000Y-126000000D02*
X100750000Y-124500000D01*
%TO.C,U3*%
X89940000Y-132000000D02*
X89940000Y-133800000D01*
X93160000Y-133800000D02*
X93160000Y-131350000D01*
%TO.C,J4*%
X85970000Y-130710000D02*
X88630000Y-130710000D01*
X85970000Y-125570000D02*
X85970000Y-130710000D01*
X88630000Y-125570000D02*
X88630000Y-130710000D01*
X85970000Y-125570000D02*
X88630000Y-125570000D01*
X85970000Y-124300000D02*
X85970000Y-122970000D01*
X85970000Y-122970000D02*
X87300000Y-122970000D01*
D12*
%TO.C,U2*%
X116825000Y-130625000D02*
X116825000Y-130525000D01*
X112175000Y-130625000D02*
X112175000Y-130425000D01*
X112175000Y-127375000D02*
X112175000Y-127575000D01*
X116825000Y-127375000D02*
X116825000Y-127575000D01*
X116825000Y-130625000D02*
X112175000Y-130625000D01*
X116825000Y-127375000D02*
X112175000Y-127375000D01*
X116825000Y-130525000D02*
X118175000Y-130525000D01*
%TD*%
M02*
