%TF.GenerationSoftware,KiCad,Pcbnew,no-vcs-found-75b21d0~61~ubuntu14.04.1*%
%TF.CreationDate,2017-12-18T14:02:50+05:30*%
%TF.ProjectId,STM8_Flasher,53544D385F466C61736865722E6B6963,rev?*%
%TF.SameCoordinates,Original*%
%TF.FileFunction,Legend,Bot*%
%TF.FilePolarity,Positive*%
%FSLAX46Y46*%
G04 Gerber Fmt 4.6, Leading zero omitted, Abs format (unit mm)*
G04 Created by KiCad (PCBNEW no-vcs-found-75b21d0~61~ubuntu14.04.1) date Mon Dec 18 14:02:50 2017*
%MOMM*%
%LPD*%
G01*
G04 APERTURE LIST*
%ADD10C,0.200000*%
%ADD11C,0.300000*%
G04 APERTURE END LIST*
D10*
X96561904Y-132400000D02*
X96657142Y-132352380D01*
X96800000Y-132352380D01*
X96942857Y-132400000D01*
X97038095Y-132495238D01*
X97085714Y-132590476D01*
X97133333Y-132780952D01*
X97133333Y-132923809D01*
X97085714Y-133114285D01*
X97038095Y-133209523D01*
X96942857Y-133304761D01*
X96800000Y-133352380D01*
X96704761Y-133352380D01*
X96561904Y-133304761D01*
X96514285Y-133257142D01*
X96514285Y-132923809D01*
X96704761Y-132923809D01*
X96085714Y-133352380D02*
X96085714Y-132352380D01*
X95514285Y-133352380D01*
X95514285Y-132352380D01*
X95038095Y-133352380D02*
X95038095Y-132352380D01*
X94800000Y-132352380D01*
X94657142Y-132400000D01*
X94561904Y-132495238D01*
X94514285Y-132590476D01*
X94466666Y-132780952D01*
X94466666Y-132923809D01*
X94514285Y-133114285D01*
X94561904Y-133209523D01*
X94657142Y-133304761D01*
X94800000Y-133352380D01*
X95038095Y-133352380D01*
X99261904Y-132352380D02*
X98690476Y-132352380D01*
X98976190Y-133352380D02*
X98976190Y-132352380D01*
X98452380Y-132352380D02*
X97785714Y-133352380D01*
X97785714Y-132352380D02*
X98452380Y-133352380D01*
X101266666Y-133352380D02*
X101600000Y-132876190D01*
X101838095Y-133352380D02*
X101838095Y-132352380D01*
X101457142Y-132352380D01*
X101361904Y-132400000D01*
X101314285Y-132447619D01*
X101266666Y-132542857D01*
X101266666Y-132685714D01*
X101314285Y-132780952D01*
X101361904Y-132828571D01*
X101457142Y-132876190D01*
X101838095Y-132876190D01*
X100933333Y-132352380D02*
X100266666Y-133352380D01*
X100266666Y-132352380D02*
X100933333Y-133352380D01*
D11*
X89921428Y-128364285D02*
X91421428Y-128364285D01*
X89992857Y-127721428D02*
X89921428Y-127507142D01*
X89921428Y-127150000D01*
X89992857Y-127007142D01*
X90064285Y-126935714D01*
X90207142Y-126864285D01*
X90350000Y-126864285D01*
X90492857Y-126935714D01*
X90564285Y-127007142D01*
X90635714Y-127150000D01*
X90707142Y-127435714D01*
X90778571Y-127578571D01*
X90850000Y-127650000D01*
X90992857Y-127721428D01*
X91135714Y-127721428D01*
X91278571Y-127650000D01*
X91350000Y-127578571D01*
X91421428Y-127435714D01*
X91421428Y-127078571D01*
X91350000Y-126864285D01*
X89921428Y-126221428D02*
X91421428Y-126221428D01*
X91421428Y-125650000D01*
X91350000Y-125507142D01*
X91278571Y-125435714D01*
X91135714Y-125364285D01*
X90921428Y-125364285D01*
X90778571Y-125435714D01*
X90707142Y-125507142D01*
X90635714Y-125650000D01*
X90635714Y-126221428D01*
D10*
X91461904Y-135200000D02*
X91557142Y-135152380D01*
X91700000Y-135152380D01*
X91842857Y-135200000D01*
X91938095Y-135295238D01*
X91985714Y-135390476D01*
X92033333Y-135580952D01*
X92033333Y-135723809D01*
X91985714Y-135914285D01*
X91938095Y-136009523D01*
X91842857Y-136104761D01*
X91700000Y-136152380D01*
X91604761Y-136152380D01*
X91461904Y-136104761D01*
X91414285Y-136057142D01*
X91414285Y-135723809D01*
X91604761Y-135723809D01*
X90985714Y-136152380D02*
X90985714Y-135152380D01*
X90414285Y-136152380D01*
X90414285Y-135152380D01*
X89938095Y-136152380D02*
X89938095Y-135152380D01*
X89700000Y-135152380D01*
X89557142Y-135200000D01*
X89461904Y-135295238D01*
X89414285Y-135390476D01*
X89366666Y-135580952D01*
X89366666Y-135723809D01*
X89414285Y-135914285D01*
X89461904Y-136009523D01*
X89557142Y-136104761D01*
X89700000Y-136152380D01*
X89938095Y-136152380D01*
X92085714Y-133371428D02*
X91323809Y-133371428D01*
X91704761Y-133752380D02*
X91704761Y-132990476D01*
X90371428Y-132752380D02*
X90847619Y-132752380D01*
X90895238Y-133228571D01*
X90847619Y-133180952D01*
X90752380Y-133133333D01*
X90514285Y-133133333D01*
X90419047Y-133180952D01*
X90371428Y-133228571D01*
X90323809Y-133323809D01*
X90323809Y-133561904D01*
X90371428Y-133657142D01*
X90419047Y-133704761D01*
X90514285Y-133752380D01*
X90752380Y-133752380D01*
X90847619Y-133704761D01*
X90895238Y-133657142D01*
X90038095Y-132752380D02*
X89704761Y-133752380D01*
X89371428Y-132752380D01*
X118461904Y-131500000D02*
X118557142Y-131452380D01*
X118700000Y-131452380D01*
X118842857Y-131500000D01*
X118938095Y-131595238D01*
X118985714Y-131690476D01*
X119033333Y-131880952D01*
X119033333Y-132023809D01*
X118985714Y-132214285D01*
X118938095Y-132309523D01*
X118842857Y-132404761D01*
X118700000Y-132452380D01*
X118604761Y-132452380D01*
X118461904Y-132404761D01*
X118414285Y-132357142D01*
X118414285Y-132023809D01*
X118604761Y-132023809D01*
X117985714Y-132452380D02*
X117985714Y-131452380D01*
X117414285Y-132452380D01*
X117414285Y-131452380D01*
X116938095Y-132452380D02*
X116938095Y-131452380D01*
X116700000Y-131452380D01*
X116557142Y-131500000D01*
X116461904Y-131595238D01*
X116414285Y-131690476D01*
X116366666Y-131880952D01*
X116366666Y-132023809D01*
X116414285Y-132214285D01*
X116461904Y-132309523D01*
X116557142Y-132404761D01*
X116700000Y-132452380D01*
X116938095Y-132452380D01*
X118942857Y-129952380D02*
X118942857Y-128952380D01*
X118371428Y-129952380D01*
X118371428Y-128952380D01*
X117323809Y-129952380D02*
X117657142Y-129476190D01*
X117895238Y-129952380D02*
X117895238Y-128952380D01*
X117514285Y-128952380D01*
X117419047Y-129000000D01*
X117371428Y-129047619D01*
X117323809Y-129142857D01*
X117323809Y-129285714D01*
X117371428Y-129380952D01*
X117419047Y-129428571D01*
X117514285Y-129476190D01*
X117895238Y-129476190D01*
X116942857Y-129904761D02*
X116800000Y-129952380D01*
X116561904Y-129952380D01*
X116466666Y-129904761D01*
X116419047Y-129857142D01*
X116371428Y-129761904D01*
X116371428Y-129666666D01*
X116419047Y-129571428D01*
X116466666Y-129523809D01*
X116561904Y-129476190D01*
X116752380Y-129428571D01*
X116847619Y-129380952D01*
X116895238Y-129333333D01*
X116942857Y-129238095D01*
X116942857Y-129142857D01*
X116895238Y-129047619D01*
X116847619Y-129000000D01*
X116752380Y-128952380D01*
X116514285Y-128952380D01*
X116371428Y-129000000D01*
X116085714Y-128952380D02*
X115514285Y-128952380D01*
X115800000Y-129952380D02*
X115800000Y-128952380D01*
X118966666Y-127404761D02*
X118823809Y-127452380D01*
X118585714Y-127452380D01*
X118490476Y-127404761D01*
X118442857Y-127357142D01*
X118395238Y-127261904D01*
X118395238Y-127166666D01*
X118442857Y-127071428D01*
X118490476Y-127023809D01*
X118585714Y-126976190D01*
X118776190Y-126928571D01*
X118871428Y-126880952D01*
X118919047Y-126833333D01*
X118966666Y-126738095D01*
X118966666Y-126642857D01*
X118919047Y-126547619D01*
X118871428Y-126500000D01*
X118776190Y-126452380D01*
X118538095Y-126452380D01*
X118395238Y-126500000D01*
X118061904Y-126452380D02*
X117823809Y-127452380D01*
X117633333Y-126738095D01*
X117442857Y-127452380D01*
X117204761Y-126452380D01*
X116823809Y-127452380D02*
X116823809Y-126452380D01*
X116347619Y-127452380D02*
X116347619Y-126452380D01*
X116014285Y-127166666D01*
X115680952Y-126452380D01*
X115680952Y-127452380D01*
D11*
X121071428Y-121685714D02*
X120900000Y-121742857D01*
X120614285Y-121742857D01*
X120500000Y-121685714D01*
X120442857Y-121628571D01*
X120385714Y-121514285D01*
X120385714Y-121400000D01*
X120442857Y-121285714D01*
X120500000Y-121228571D01*
X120614285Y-121171428D01*
X120842857Y-121114285D01*
X120957142Y-121057142D01*
X121014285Y-121000000D01*
X121071428Y-120885714D01*
X121071428Y-120771428D01*
X121014285Y-120657142D01*
X120957142Y-120600000D01*
X120842857Y-120542857D01*
X120557142Y-120542857D01*
X120385714Y-120600000D01*
X120042857Y-120542857D02*
X119357142Y-120542857D01*
X119700000Y-121742857D02*
X119700000Y-120542857D01*
X118957142Y-121742857D02*
X118957142Y-120542857D01*
X118557142Y-121400000D01*
X118157142Y-120542857D01*
X118157142Y-121742857D01*
X117414285Y-121057142D02*
X117528571Y-121000000D01*
X117585714Y-120942857D01*
X117642857Y-120828571D01*
X117642857Y-120771428D01*
X117585714Y-120657142D01*
X117528571Y-120600000D01*
X117414285Y-120542857D01*
X117185714Y-120542857D01*
X117071428Y-120600000D01*
X117014285Y-120657142D01*
X116957142Y-120771428D01*
X116957142Y-120828571D01*
X117014285Y-120942857D01*
X117071428Y-121000000D01*
X117185714Y-121057142D01*
X117414285Y-121057142D01*
X117528571Y-121114285D01*
X117585714Y-121171428D01*
X117642857Y-121285714D01*
X117642857Y-121514285D01*
X117585714Y-121628571D01*
X117528571Y-121685714D01*
X117414285Y-121742857D01*
X117185714Y-121742857D01*
X117071428Y-121685714D01*
X117014285Y-121628571D01*
X116957142Y-121514285D01*
X116957142Y-121285714D01*
X117014285Y-121171428D01*
X117071428Y-121114285D01*
X117185714Y-121057142D01*
X115128571Y-121114285D02*
X115528571Y-121114285D01*
X115528571Y-121742857D02*
X115528571Y-120542857D01*
X114957142Y-120542857D01*
X113928571Y-121742857D02*
X114500000Y-121742857D01*
X114500000Y-120542857D01*
X113585714Y-121400000D02*
X113014285Y-121400000D01*
X113700000Y-121742857D02*
X113300000Y-120542857D01*
X112900000Y-121742857D01*
X112557142Y-121685714D02*
X112385714Y-121742857D01*
X112100000Y-121742857D01*
X111985714Y-121685714D01*
X111928571Y-121628571D01*
X111871428Y-121514285D01*
X111871428Y-121400000D01*
X111928571Y-121285714D01*
X111985714Y-121228571D01*
X112100000Y-121171428D01*
X112328571Y-121114285D01*
X112442857Y-121057142D01*
X112500000Y-121000000D01*
X112557142Y-120885714D01*
X112557142Y-120771428D01*
X112500000Y-120657142D01*
X112442857Y-120600000D01*
X112328571Y-120542857D01*
X112042857Y-120542857D01*
X111871428Y-120600000D01*
X111357142Y-121742857D02*
X111357142Y-120542857D01*
X111357142Y-121114285D02*
X110671428Y-121114285D01*
X110671428Y-121742857D02*
X110671428Y-120542857D01*
X110100000Y-121114285D02*
X109700000Y-121114285D01*
X109528571Y-121742857D02*
X110100000Y-121742857D01*
X110100000Y-120542857D01*
X109528571Y-120542857D01*
X108328571Y-121742857D02*
X108728571Y-121171428D01*
X109014285Y-121742857D02*
X109014285Y-120542857D01*
X108557142Y-120542857D01*
X108442857Y-120600000D01*
X108385714Y-120657142D01*
X108328571Y-120771428D01*
X108328571Y-120942857D01*
X108385714Y-121057142D01*
X108442857Y-121114285D01*
X108557142Y-121171428D01*
X109014285Y-121171428D01*
X107071428Y-120542857D02*
X106671428Y-121742857D01*
X106271428Y-120542857D01*
X105242857Y-121742857D02*
X105928571Y-121742857D01*
X105585714Y-121742857D02*
X105585714Y-120542857D01*
X105700000Y-120714285D01*
X105814285Y-120828571D01*
X105928571Y-120885714D01*
X104728571Y-121628571D02*
X104671428Y-121685714D01*
X104728571Y-121742857D01*
X104785714Y-121685714D01*
X104728571Y-121628571D01*
X104728571Y-121742857D01*
X103928571Y-120542857D02*
X103814285Y-120542857D01*
X103700000Y-120600000D01*
X103642857Y-120657142D01*
X103585714Y-120771428D01*
X103528571Y-121000000D01*
X103528571Y-121285714D01*
X103585714Y-121514285D01*
X103642857Y-121628571D01*
X103700000Y-121685714D01*
X103814285Y-121742857D01*
X103928571Y-121742857D01*
X104042857Y-121685714D01*
X104100000Y-121628571D01*
X104157142Y-121514285D01*
X104214285Y-121285714D01*
X104214285Y-121000000D01*
X104157142Y-120771428D01*
X104100000Y-120657142D01*
X104042857Y-120600000D01*
X103928571Y-120542857D01*
M02*
