%TF.GenerationSoftware,KiCad,Pcbnew,no-vcs-found-75b21d0~61~ubuntu14.04.1*%
%TF.CreationDate,2017-12-18T14:02:50+05:30*%
%TF.ProjectId,STM8_Flasher,53544D385F466C61736865722E6B6963,rev?*%
%TF.SameCoordinates,Original*%
%TF.FileFunction,Copper,L1,Top,Signal*%
%TF.FilePolarity,Positive*%
%FSLAX46Y46*%
G04 Gerber Fmt 4.6, Leading zero omitted, Abs format (unit mm)*
G04 Created by KiCad (PCBNEW no-vcs-found-75b21d0~61~ubuntu14.04.1) date Mon Dec 18 14:02:50 2017*
%MOMM*%
%LPD*%
G01*
G04 APERTURE LIST*
%TA.AperFunction,ComponentPad*%
%ADD10O,1.700000X1.700000*%
%TD*%
%TA.AperFunction,ComponentPad*%
%ADD11R,1.700000X1.700000*%
%TD*%
%TA.AperFunction,SMDPad,CuDef*%
%ADD12R,1.300000X0.700000*%
%TD*%
%TA.AperFunction,SMDPad,CuDef*%
%ADD13R,0.400000X1.400000*%
%TD*%
%TA.AperFunction,SMDPad,CuDef*%
%ADD14R,1.250000X1.000000*%
%TD*%
%TA.AperFunction,SMDPad,CuDef*%
%ADD15R,1.000000X1.250000*%
%TD*%
%TA.AperFunction,SMDPad,CuDef*%
%ADD16R,1.200000X1.200000*%
%TD*%
%TA.AperFunction,SMDPad,CuDef*%
%ADD17R,0.700000X1.300000*%
%TD*%
%TA.AperFunction,ComponentPad*%
%ADD18C,2.000000*%
%TD*%
%TA.AperFunction,SMDPad,CuDef*%
%ADD19R,0.650000X1.060000*%
%TD*%
%TA.AperFunction,SMDPad,CuDef*%
%ADD20R,1.450000X0.450000*%
%TD*%
%TA.AperFunction,Conductor*%
%ADD21C,0.300000*%
%TD*%
%TA.AperFunction,Conductor*%
%ADD22C,0.254000*%
%TD*%
G04 APERTURE END LIST*
D10*
%TO.P,J2,3*%
%TO.N,GND*%
X95960000Y-135400000D03*
%TO.P,J2,2*%
%TO.N,UART_TX*%
X98500000Y-135400000D03*
D11*
%TO.P,J2,1*%
%TO.N,UART_RX*%
X101040000Y-135400000D03*
%TD*%
D12*
%TO.P,R8,2*%
%TO.N,Net-(D2-Pad1)*%
X111000000Y-135950000D03*
%TO.P,R8,1*%
%TO.N,LED_GREEN*%
X111000000Y-134050000D03*
%TD*%
D13*
%TO.P,U1,1*%
%TO.N,PROG_SWITCH*%
X103075000Y-130950000D03*
%TO.P,U1,2*%
%TO.N,UART_TX*%
X103725000Y-130950000D03*
%TO.P,U1,3*%
%TO.N,UART_RX*%
X104375000Y-130950000D03*
%TO.P,U1,4*%
%TO.N,Net-(C1-Pad1)*%
X105025000Y-130950000D03*
%TO.P,U1,5*%
%TO.N,Net-(U1-Pad5)*%
X105675000Y-130950000D03*
%TO.P,U1,6*%
%TO.N,LED_RED*%
X106325000Y-130950000D03*
%TO.P,U1,7*%
%TO.N,GND*%
X106975000Y-130950000D03*
%TO.P,U1,8*%
%TO.N,Net-(C2-Pad1)*%
X107625000Y-130950000D03*
%TO.P,U1,9*%
%TO.N,+3V3*%
X108275000Y-130950000D03*
%TO.P,U1,10*%
%TO.N,LED_GREEN*%
X108925000Y-130950000D03*
%TO.P,U1,11*%
%TO.N,I2C_SDA*%
X108925000Y-125050000D03*
%TO.P,U1,12*%
%TO.N,I2C_SCL*%
X108275000Y-125050000D03*
%TO.P,U1,13*%
%TO.N,SWIM_INT*%
X107625000Y-125050000D03*
%TO.P,U1,14*%
%TO.N,SWIM_NRST*%
X106975000Y-125050000D03*
%TO.P,U1,15*%
%TO.N,SWIM_OUT*%
X106325000Y-125050000D03*
%TO.P,U1,16*%
%TO.N,Net-(U1-Pad16)*%
X105675000Y-125050000D03*
%TO.P,U1,17*%
%TO.N,Net-(U1-Pad17)*%
X105025000Y-125050000D03*
%TO.P,U1,18*%
%TO.N,Net-(J4-Pad1)*%
X104375000Y-125050000D03*
%TO.P,U1,19*%
%TO.N,Net-(U1-Pad19)*%
X103725000Y-125050000D03*
%TO.P,U1,20*%
%TO.N,Net-(U1-Pad20)*%
X103075000Y-125050000D03*
%TD*%
D14*
%TO.P,C1,2*%
%TO.N,GND*%
X104500000Y-136000000D03*
%TO.P,C1,1*%
%TO.N,Net-(C1-Pad1)*%
X104500000Y-134000000D03*
%TD*%
%TO.P,C2,1*%
%TO.N,Net-(C2-Pad1)*%
X107000000Y-134000000D03*
%TO.P,C2,2*%
%TO.N,GND*%
X107000000Y-136000000D03*
%TD*%
%TO.P,C3,2*%
%TO.N,GND*%
X109000000Y-136000000D03*
%TO.P,C3,1*%
%TO.N,+3V3*%
X109000000Y-134000000D03*
%TD*%
D15*
%TO.P,C4,1*%
%TO.N,PROG_SWITCH*%
X97000000Y-130000000D03*
%TO.P,C4,2*%
%TO.N,GND*%
X95000000Y-130000000D03*
%TD*%
%TO.P,C5,2*%
%TO.N,GND*%
X92550000Y-129900000D03*
%TO.P,C5,1*%
%TO.N,VCC*%
X90550000Y-129900000D03*
%TD*%
%TO.P,C6,1*%
%TO.N,+3V3*%
X92550000Y-135900000D03*
%TO.P,C6,2*%
%TO.N,GND*%
X90550000Y-135900000D03*
%TD*%
D16*
%TO.P,D1,1*%
%TO.N,Net-(D1-Pad1)*%
X115000000Y-136100000D03*
%TO.P,D1,2*%
%TO.N,+3V3*%
X115000000Y-133900000D03*
%TD*%
%TO.P,D2,2*%
%TO.N,+3V3*%
X117000000Y-133900000D03*
%TO.P,D2,1*%
%TO.N,Net-(D2-Pad1)*%
X117000000Y-136100000D03*
%TD*%
D11*
%TO.P,J1,1*%
%TO.N,SWIM_INT*%
X121000000Y-126960000D03*
D10*
%TO.P,J1,2*%
%TO.N,Net-(J1-Pad2)*%
X121000000Y-129500000D03*
%TO.P,J1,3*%
%TO.N,GND*%
X121000000Y-132040000D03*
%TD*%
D11*
%TO.P,J3,1*%
%TO.N,GND*%
X87300000Y-135700000D03*
D10*
%TO.P,J3,2*%
%TO.N,VCC*%
X87300000Y-133160000D03*
%TD*%
D17*
%TO.P,R1,2*%
%TO.N,SWIM_OUT*%
X115050000Y-125000000D03*
%TO.P,R1,1*%
%TO.N,SWIM_INT*%
X116950000Y-125000000D03*
%TD*%
%TO.P,R2,1*%
%TO.N,Net-(J1-Pad2)*%
X116950000Y-123000000D03*
%TO.P,R2,2*%
%TO.N,SWIM_NRST*%
X115050000Y-123000000D03*
%TD*%
%TO.P,R3,1*%
%TO.N,PROG_SWITCH*%
X96950000Y-132000000D03*
%TO.P,R3,2*%
%TO.N,+3V3*%
X95050000Y-132000000D03*
%TD*%
D12*
%TO.P,R4,2*%
%TO.N,PROG_SWITCH*%
X99000000Y-131950000D03*
%TO.P,R4,1*%
%TO.N,Net-(R4-Pad1)*%
X99000000Y-130050000D03*
%TD*%
%TO.P,R5,1*%
%TO.N,LED_RED*%
X113000000Y-134050000D03*
%TO.P,R5,2*%
%TO.N,Net-(D1-Pad1)*%
X113000000Y-135950000D03*
%TD*%
D17*
%TO.P,R6,2*%
%TO.N,+3V3*%
X112950000Y-123000000D03*
%TO.P,R6,1*%
%TO.N,I2C_SCL*%
X111050000Y-123000000D03*
%TD*%
%TO.P,R7,1*%
%TO.N,I2C_SDA*%
X111050000Y-125000000D03*
%TO.P,R7,2*%
%TO.N,+3V3*%
X112950000Y-125000000D03*
%TD*%
D18*
%TO.P,SW1,2*%
%TO.N,Net-(R4-Pad1)*%
X94000000Y-127500000D03*
%TO.P,SW1,1*%
%TO.N,GND*%
X94000000Y-123000000D03*
%TO.P,SW1,2*%
%TO.N,Net-(R4-Pad1)*%
X100500000Y-127500000D03*
%TO.P,SW1,1*%
%TO.N,GND*%
X100500000Y-123000000D03*
%TD*%
D19*
%TO.P,U3,1*%
%TO.N,VCC*%
X92500000Y-131800000D03*
%TO.P,U3,2*%
%TO.N,GND*%
X91550000Y-131800000D03*
%TO.P,U3,3*%
%TO.N,VCC*%
X90600000Y-131800000D03*
%TO.P,U3,4*%
%TO.N,Net-(U3-Pad4)*%
X90600000Y-134000000D03*
%TO.P,U3,5*%
%TO.N,+3V3*%
X92500000Y-134000000D03*
%TD*%
D11*
%TO.P,J4,1*%
%TO.N,Net-(J4-Pad1)*%
X87300000Y-124300000D03*
D10*
%TO.P,J4,2*%
%TO.N,Net-(C1-Pad1)*%
X87300000Y-126840000D03*
%TO.P,J4,3*%
%TO.N,GND*%
X87300000Y-129380000D03*
%TD*%
D20*
%TO.P,U2,1*%
%TO.N,GND*%
X117450000Y-129975000D03*
%TO.P,U2,2*%
X117450000Y-129325000D03*
%TO.P,U2,3*%
X117450000Y-128675000D03*
%TO.P,U2,4*%
X117450000Y-128025000D03*
%TO.P,U2,5*%
%TO.N,I2C_SDA*%
X111550000Y-128025000D03*
%TO.P,U2,6*%
%TO.N,I2C_SCL*%
X111550000Y-128675000D03*
%TO.P,U2,7*%
%TO.N,GND*%
X111550000Y-129325000D03*
%TO.P,U2,8*%
%TO.N,+3V3*%
X111550000Y-129975000D03*
%TD*%
D21*
%TO.N,GND*%
X111550000Y-129325000D02*
X113475000Y-129325000D01*
X113475000Y-129325000D02*
X113600000Y-129200000D01*
X111550000Y-129325000D02*
X110025000Y-129325000D01*
X117450000Y-128675000D02*
X117450000Y-128025000D01*
X117450000Y-129325000D02*
X117450000Y-128675000D01*
X117450000Y-129975000D02*
X117450000Y-129325000D01*
X106975000Y-130950000D02*
X106975000Y-131825000D01*
X106975000Y-131825000D02*
X106100000Y-132700000D01*
X100500000Y-123000000D02*
X102000000Y-124500000D01*
X95960000Y-135400000D02*
X95960000Y-130160000D01*
X95960000Y-130160000D02*
X95800000Y-130000000D01*
X95800000Y-130000000D02*
X95000000Y-130000000D01*
X91550000Y-131800000D02*
X91550000Y-130900000D01*
X106100000Y-132700000D02*
X105700001Y-133099999D01*
X105700001Y-133099999D02*
X105700001Y-135999999D01*
X107000000Y-136000000D02*
X109000000Y-136000000D01*
X104500000Y-136000000D02*
X107000000Y-136000000D01*
X103625000Y-136000000D02*
X104500000Y-136000000D01*
X102625000Y-137000000D02*
X103625000Y-136000000D01*
X95960000Y-135400000D02*
X97560000Y-137000000D01*
X97560000Y-137000000D02*
X102625000Y-137000000D01*
%TO.N,Net-(C1-Pad1)*%
X90860000Y-126840000D02*
X92200000Y-125500000D01*
X92200000Y-125500000D02*
X100800000Y-125500000D01*
X100800000Y-125500000D02*
X102100000Y-126800000D01*
X102100000Y-126800000D02*
X102100000Y-129000000D01*
X102100000Y-129000000D02*
X102700000Y-129600000D01*
X102700000Y-129600000D02*
X104800000Y-129600000D01*
X104800000Y-129600000D02*
X105025000Y-129825000D01*
X105025000Y-129825000D02*
X105025000Y-130950000D01*
X87300000Y-126840000D02*
X90860000Y-126840000D01*
X90860000Y-126840000D02*
X90900000Y-126800000D01*
X104500000Y-134000000D02*
X104500000Y-133200000D01*
X104500000Y-133200000D02*
X105025000Y-132675000D01*
X105025000Y-132675000D02*
X105025000Y-130950000D01*
%TO.N,Net-(C2-Pad1)*%
X107000000Y-134000000D02*
X107000000Y-133200000D01*
X107625000Y-132575000D02*
X107625000Y-130950000D01*
X107000000Y-133200000D02*
X107625000Y-132575000D01*
%TO.N,+3V3*%
X112950000Y-125000000D02*
X112950000Y-126850000D01*
X112950000Y-126850000D02*
X114500000Y-128400000D01*
X114500000Y-128400000D02*
X114500000Y-130310000D01*
X114500000Y-130310000D02*
X113405000Y-131405000D01*
X111550000Y-129975000D02*
X111550000Y-131155000D01*
X111550000Y-131155000D02*
X111800000Y-131405000D01*
X111800000Y-131405000D02*
X113405000Y-131405000D01*
X113405000Y-131405000D02*
X115000000Y-133000000D01*
X115000000Y-133000000D02*
X115000000Y-133900000D01*
X92550000Y-135900000D02*
X92550000Y-134050000D01*
X92550000Y-134050000D02*
X92500000Y-134000000D01*
X93200000Y-137425000D02*
X92500000Y-136725000D01*
X92500000Y-136725000D02*
X92500000Y-135950000D01*
X92500000Y-135950000D02*
X92550000Y-135900000D01*
X115000000Y-133900000D02*
X115000000Y-134800000D01*
X115000000Y-134800000D02*
X114800000Y-135000000D01*
X109000000Y-134000000D02*
X109125000Y-134000000D01*
X109125000Y-134000000D02*
X110125000Y-135000000D01*
X110125000Y-135000000D02*
X114800000Y-135000000D01*
X93475000Y-137700000D02*
X93200000Y-137425000D01*
X117210002Y-137900000D02*
X93675000Y-137900000D01*
X93675000Y-137900000D02*
X93200000Y-137425000D01*
X118200000Y-134200000D02*
X118200000Y-136910002D01*
X118200000Y-136910002D02*
X117210002Y-137900000D01*
X117900000Y-133900000D02*
X118200000Y-134200000D01*
X95050000Y-132000000D02*
X94295000Y-132000000D01*
X92500000Y-134000000D02*
X92500000Y-133795000D01*
X92500000Y-133795000D02*
X94295000Y-132000000D01*
X117000000Y-133900000D02*
X117900000Y-133900000D01*
X115000000Y-133900000D02*
X117000000Y-133900000D01*
X112950000Y-123000000D02*
X112950000Y-125000000D01*
X109000000Y-134000000D02*
X109000000Y-133200000D01*
X108275000Y-132475000D02*
X108275000Y-130950000D01*
X109000000Y-133200000D02*
X108275000Y-132475000D01*
%TO.N,PROG_SWITCH*%
X96950000Y-132000000D02*
X98950000Y-132000000D01*
X98950000Y-132000000D02*
X99000000Y-131950000D01*
X97000000Y-130000000D02*
X97000000Y-131950000D01*
X97000000Y-131950000D02*
X96950000Y-132000000D01*
X96950000Y-130050000D02*
X97000000Y-130000000D01*
X99000000Y-131950000D02*
X102575000Y-131950000D01*
X102575000Y-131950000D02*
X103075000Y-131450000D01*
X103075000Y-131450000D02*
X103075000Y-130950000D01*
%TO.N,VCC*%
X87300000Y-133160000D02*
X88660000Y-131800000D01*
X88660000Y-131800000D02*
X90600000Y-131800000D01*
X90550000Y-129900000D02*
X90550000Y-131750000D01*
X90550000Y-131750000D02*
X90600000Y-131800000D01*
X92500000Y-131800000D02*
X92500000Y-132630000D01*
X92500000Y-132630000D02*
X92230000Y-132900000D01*
X92230000Y-132900000D02*
X90870000Y-132900000D01*
X90870000Y-132900000D02*
X90600000Y-132630000D01*
X90600000Y-132630000D02*
X90600000Y-131800000D01*
%TO.N,Net-(D1-Pad1)*%
X113000000Y-135950000D02*
X114850000Y-135950000D01*
X114850000Y-135950000D02*
X115000000Y-136100000D01*
%TO.N,Net-(D2-Pad1)*%
X112650000Y-137300000D02*
X111300000Y-135950000D01*
X116700000Y-137300000D02*
X112650000Y-137300000D01*
X111300000Y-135950000D02*
X111000000Y-135950000D01*
X117000000Y-136100000D02*
X117000000Y-137000000D01*
X117000000Y-137000000D02*
X116700000Y-137300000D01*
X111300000Y-135950000D02*
X112063613Y-136713613D01*
%TO.N,SWIM_INT*%
X116700000Y-126200000D02*
X114600000Y-126200000D01*
X114600000Y-126200000D02*
X114000000Y-125600000D01*
X116950000Y-125000000D02*
X116950000Y-125950000D01*
X116950000Y-125950000D02*
X116700000Y-126200000D01*
X116950000Y-125300000D02*
X116950000Y-125000000D01*
X109574978Y-121825022D02*
X113625022Y-121825022D01*
X107625000Y-125050000D02*
X107625000Y-123775000D01*
X107625000Y-123775000D02*
X109574978Y-121825022D01*
X113625022Y-121825022D02*
X114000000Y-122200000D01*
X114000000Y-122200000D02*
X114000000Y-125600000D01*
X116950000Y-125000000D02*
X120190000Y-125000000D01*
X120190000Y-125000000D02*
X121000000Y-125810000D01*
X121000000Y-125810000D02*
X121000000Y-126960000D01*
%TO.N,UART_RX*%
X104375000Y-130950000D02*
X104375000Y-132225000D01*
X104375000Y-132225000D02*
X101200000Y-135400000D01*
X101200000Y-135400000D02*
X101040000Y-135400000D01*
X101164998Y-135400000D02*
X101040000Y-135400000D01*
%TO.N,UART_TX*%
X101916455Y-133800000D02*
X100400000Y-133800000D01*
X100400000Y-133800000D02*
X100100000Y-133800000D01*
X98500000Y-135400000D02*
X98500000Y-134197919D01*
X98500000Y-134197919D02*
X98897919Y-133800000D01*
X98897919Y-133800000D02*
X100400000Y-133800000D01*
X103725000Y-130950000D02*
X103725000Y-131991455D01*
X103725000Y-131991455D02*
X101916455Y-133800000D01*
%TO.N,SWIM_NRST*%
X109300000Y-121200000D02*
X106975000Y-123525000D01*
X106975000Y-123525000D02*
X106975000Y-125050000D01*
X114200000Y-121200000D02*
X109300000Y-121200000D01*
X115050000Y-123000000D02*
X115050000Y-122050000D01*
X115050000Y-122050000D02*
X114200000Y-121200000D01*
%TO.N,Net-(R4-Pad1)*%
X100500000Y-127500000D02*
X94000000Y-127500000D01*
X99000000Y-130050000D02*
X99000000Y-129000000D01*
X99000000Y-129000000D02*
X100500000Y-127500000D01*
%TO.N,LED_RED*%
X112700000Y-134050000D02*
X113000000Y-134050000D01*
X109900000Y-131250000D02*
X112700000Y-134050000D01*
X109900000Y-130214998D02*
X109900000Y-131250000D01*
X109433536Y-129748533D02*
X109900000Y-130214998D01*
X106526467Y-129748533D02*
X109433536Y-129748533D01*
X106325000Y-130950000D02*
X106325000Y-129950000D01*
X106325000Y-129950000D02*
X106526467Y-129748533D01*
%TO.N,I2C_SCL*%
X109400000Y-127550000D02*
X108275000Y-126425000D01*
X108275000Y-126425000D02*
X108275000Y-125050000D01*
X109500000Y-127640000D02*
X109400000Y-127540000D01*
X110525000Y-128675000D02*
X109400000Y-127550000D01*
X111550000Y-128675000D02*
X110525000Y-128675000D01*
X109400000Y-127550000D02*
X109400000Y-127540000D01*
X108275000Y-125050000D02*
X108275000Y-124050000D01*
X108275000Y-124050000D02*
X109325000Y-123000000D01*
X109325000Y-123000000D02*
X111050000Y-123000000D01*
%TO.N,I2C_SDA*%
X111050000Y-126350000D02*
X111550000Y-126850000D01*
X111550000Y-126850000D02*
X111550000Y-128025000D01*
X111050000Y-125000000D02*
X111050000Y-126350000D01*
X111050000Y-125000000D02*
X108975000Y-125000000D01*
X108975000Y-125000000D02*
X108925000Y-125050000D01*
X108925000Y-125050000D02*
X108925000Y-125550000D01*
%TO.N,LED_GREEN*%
X108925000Y-130950000D02*
X108925000Y-131975000D01*
X108925000Y-131975000D02*
X109850000Y-132900000D01*
X109850000Y-132900000D02*
X110450000Y-132900000D01*
X111000000Y-134050000D02*
X111000000Y-133400000D01*
X111000000Y-133400000D02*
X110500000Y-132900000D01*
%TO.N,Net-(J1-Pad2)*%
X118000000Y-123400000D02*
X118000000Y-124000000D01*
X118000000Y-124000000D02*
X118300000Y-124300000D01*
X116950000Y-123000000D02*
X117600000Y-123000000D01*
X117600000Y-123000000D02*
X118000000Y-123400000D01*
X120850002Y-124300000D02*
X118300000Y-124300000D01*
X122600000Y-128600000D02*
X122600000Y-126049998D01*
X122600000Y-126049998D02*
X120850002Y-124300000D01*
X121700000Y-129500000D02*
X122600000Y-128600000D01*
X121000000Y-129500000D02*
X121700000Y-129500000D01*
%TO.N,Net-(J4-Pad1)*%
X104375000Y-121275000D02*
X104375000Y-125050000D01*
X103800000Y-120700000D02*
X104375000Y-121275000D01*
X92700000Y-120700000D02*
X103800000Y-120700000D01*
X91500000Y-121900000D02*
X92700000Y-120700000D01*
X91500000Y-123600000D02*
X91500000Y-121900000D01*
X90800000Y-124300000D02*
X91500000Y-123600000D01*
X87300000Y-124300000D02*
X90800000Y-124300000D01*
%TO.N,SWIM_OUT*%
X109000000Y-120600000D02*
X106325000Y-123275000D01*
X106325000Y-123275000D02*
X106325000Y-125050000D01*
X114600000Y-120600000D02*
X109000000Y-120600000D01*
X116000000Y-122000000D02*
X114600000Y-120600000D01*
X116000000Y-122229998D02*
X116000000Y-122000000D01*
X116000000Y-122229998D02*
X116000000Y-122100000D01*
X116000000Y-124700000D02*
X116000000Y-122229998D01*
X115050000Y-125000000D02*
X115700000Y-125000000D01*
X115700000Y-125000000D02*
X116000000Y-124700000D01*
%TD*%
D22*
%TO.N,GND*%
G36*
X123548000Y-138548000D02*
X85452000Y-138548000D01*
X85452000Y-135921250D01*
X86073000Y-135921250D01*
X86073000Y-136624990D01*
X86130395Y-136763553D01*
X86236447Y-136869605D01*
X86375010Y-136927000D01*
X87078750Y-136927000D01*
X87173000Y-136832750D01*
X87173000Y-135827000D01*
X87427000Y-135827000D01*
X87427000Y-136832750D01*
X87521250Y-136927000D01*
X88224990Y-136927000D01*
X88363553Y-136869605D01*
X88469605Y-136763553D01*
X88527000Y-136624990D01*
X88527000Y-136121250D01*
X89673000Y-136121250D01*
X89673000Y-136599990D01*
X89730395Y-136738553D01*
X89836447Y-136844605D01*
X89975010Y-136902000D01*
X90328750Y-136902000D01*
X90423000Y-136807750D01*
X90423000Y-136027000D01*
X90677000Y-136027000D01*
X90677000Y-136807750D01*
X90771250Y-136902000D01*
X91124990Y-136902000D01*
X91263553Y-136844605D01*
X91369605Y-136738553D01*
X91427000Y-136599990D01*
X91427000Y-136121250D01*
X91332750Y-136027000D01*
X90677000Y-136027000D01*
X90423000Y-136027000D01*
X89767250Y-136027000D01*
X89673000Y-136121250D01*
X88527000Y-136121250D01*
X88527000Y-135921250D01*
X88432750Y-135827000D01*
X87427000Y-135827000D01*
X87173000Y-135827000D01*
X86167250Y-135827000D01*
X86073000Y-135921250D01*
X85452000Y-135921250D01*
X85452000Y-134775010D01*
X86073000Y-134775010D01*
X86073000Y-135478750D01*
X86167250Y-135573000D01*
X87173000Y-135573000D01*
X87173000Y-134567250D01*
X87427000Y-134567250D01*
X87427000Y-135573000D01*
X88432750Y-135573000D01*
X88527000Y-135478750D01*
X88527000Y-134775010D01*
X88469605Y-134636447D01*
X88363553Y-134530395D01*
X88224990Y-134473000D01*
X87521250Y-134473000D01*
X87427000Y-134567250D01*
X87173000Y-134567250D01*
X87078750Y-134473000D01*
X86375010Y-134473000D01*
X86236447Y-134530395D01*
X86130395Y-134636447D01*
X86073000Y-134775010D01*
X85452000Y-134775010D01*
X85452000Y-129696351D01*
X86114482Y-129696351D01*
X86238011Y-129994600D01*
X86554047Y-130354222D01*
X86983648Y-130565528D01*
X87173000Y-130506171D01*
X87173000Y-129507000D01*
X87427000Y-129507000D01*
X87427000Y-130506171D01*
X87616352Y-130565528D01*
X88045953Y-130354222D01*
X88361989Y-129994600D01*
X88485518Y-129696351D01*
X88425608Y-129507000D01*
X87427000Y-129507000D01*
X87173000Y-129507000D01*
X86174392Y-129507000D01*
X86114482Y-129696351D01*
X85452000Y-129696351D01*
X85452000Y-129063649D01*
X86114482Y-129063649D01*
X86174392Y-129253000D01*
X87173000Y-129253000D01*
X87173000Y-128253829D01*
X87427000Y-128253829D01*
X87427000Y-129253000D01*
X88425608Y-129253000D01*
X88485518Y-129063649D01*
X88361989Y-128765400D01*
X88045953Y-128405778D01*
X87616352Y-128194472D01*
X87427000Y-128253829D01*
X87173000Y-128253829D01*
X86983648Y-128194472D01*
X86554047Y-128405778D01*
X86238011Y-128765400D01*
X86114482Y-129063649D01*
X85452000Y-129063649D01*
X85452000Y-126840000D01*
X86048962Y-126840000D01*
X86142362Y-127309553D01*
X86408342Y-127707620D01*
X86806409Y-127973600D01*
X87275962Y-128067000D01*
X87324038Y-128067000D01*
X87793591Y-127973600D01*
X88191658Y-127707620D01*
X88419253Y-127367000D01*
X90860000Y-127367000D01*
X91061675Y-127326885D01*
X91232645Y-127212645D01*
X91272646Y-127172645D01*
X91272648Y-127172642D01*
X92418290Y-126027000D01*
X100581710Y-126027000D01*
X100677865Y-126123155D01*
X100227299Y-126122762D01*
X99721011Y-126331956D01*
X99333317Y-126718974D01*
X99227836Y-126973000D01*
X95272164Y-126973000D01*
X95168044Y-126721011D01*
X94781026Y-126333317D01*
X94275104Y-126123240D01*
X93727299Y-126122762D01*
X93221011Y-126331956D01*
X92833317Y-126718974D01*
X92623240Y-127224896D01*
X92622762Y-127772701D01*
X92831956Y-128278989D01*
X93218974Y-128666683D01*
X93724896Y-128876760D01*
X94272701Y-128877238D01*
X94778989Y-128668044D01*
X95166683Y-128281026D01*
X95272164Y-128027000D01*
X99227710Y-128027000D01*
X98627355Y-128627355D01*
X98513115Y-128798325D01*
X98496521Y-128881750D01*
X98473000Y-129000000D01*
X98473000Y-129315615D01*
X98350000Y-129315615D01*
X98202902Y-129344875D01*
X98078199Y-129428199D01*
X97994875Y-129552902D01*
X97965615Y-129700000D01*
X97965615Y-130400000D01*
X97994875Y-130547098D01*
X98078199Y-130671801D01*
X98202902Y-130755125D01*
X98350000Y-130784385D01*
X99650000Y-130784385D01*
X99797098Y-130755125D01*
X99921801Y-130671801D01*
X100005125Y-130547098D01*
X100034385Y-130400000D01*
X100034385Y-129700000D01*
X100005125Y-129552902D01*
X99921801Y-129428199D01*
X99797098Y-129344875D01*
X99650000Y-129315615D01*
X99527000Y-129315615D01*
X99527000Y-129218290D01*
X99973090Y-128772201D01*
X100224896Y-128876760D01*
X100772701Y-128877238D01*
X101278989Y-128668044D01*
X101573000Y-128374546D01*
X101573000Y-129000000D01*
X101613115Y-129201675D01*
X101727355Y-129372645D01*
X102327355Y-129972645D01*
X102498325Y-130086885D01*
X102526794Y-130092548D01*
X102519875Y-130102902D01*
X102490615Y-130250000D01*
X102490615Y-131289095D01*
X102356710Y-131423000D01*
X99985145Y-131423000D01*
X99921801Y-131328199D01*
X99797098Y-131244875D01*
X99650000Y-131215615D01*
X98350000Y-131215615D01*
X98202902Y-131244875D01*
X98078199Y-131328199D01*
X97994875Y-131452902D01*
X97990877Y-131473000D01*
X97684385Y-131473000D01*
X97684385Y-131350000D01*
X97655125Y-131202902D01*
X97571801Y-131078199D01*
X97527000Y-131048264D01*
X97527000Y-131004014D01*
X97647098Y-130980125D01*
X97771801Y-130896801D01*
X97855125Y-130772098D01*
X97884385Y-130625000D01*
X97884385Y-129375000D01*
X97855125Y-129227902D01*
X97771801Y-129103199D01*
X97647098Y-129019875D01*
X97500000Y-128990615D01*
X96500000Y-128990615D01*
X96352902Y-129019875D01*
X96228199Y-129103199D01*
X96144875Y-129227902D01*
X96115615Y-129375000D01*
X96115615Y-130625000D01*
X96144875Y-130772098D01*
X96228199Y-130896801D01*
X96352902Y-130980125D01*
X96446972Y-130998837D01*
X96328199Y-131078199D01*
X96244875Y-131202902D01*
X96215615Y-131350000D01*
X96215615Y-132650000D01*
X96244875Y-132797098D01*
X96328199Y-132921801D01*
X96452902Y-133005125D01*
X96600000Y-133034385D01*
X97300000Y-133034385D01*
X97447098Y-133005125D01*
X97571801Y-132921801D01*
X97655125Y-132797098D01*
X97684385Y-132650000D01*
X97684385Y-132527000D01*
X98048264Y-132527000D01*
X98078199Y-132571801D01*
X98202902Y-132655125D01*
X98350000Y-132684385D01*
X99650000Y-132684385D01*
X99797098Y-132655125D01*
X99921801Y-132571801D01*
X99985145Y-132477000D01*
X102494165Y-132477000D01*
X101698165Y-133273000D01*
X98897919Y-133273000D01*
X98696245Y-133313115D01*
X98696243Y-133313116D01*
X98696244Y-133313116D01*
X98525273Y-133427355D01*
X98127355Y-133825274D01*
X98013115Y-133996244D01*
X97992144Y-134101674D01*
X97973000Y-134197919D01*
X97973000Y-134280747D01*
X97632380Y-134508342D01*
X97366400Y-134906409D01*
X97273000Y-135375962D01*
X97273000Y-135424038D01*
X97366400Y-135893591D01*
X97632380Y-136291658D01*
X98030447Y-136557638D01*
X98500000Y-136651038D01*
X98969553Y-136557638D01*
X99367620Y-136291658D01*
X99633600Y-135893591D01*
X99727000Y-135424038D01*
X99727000Y-135375962D01*
X99633600Y-134906409D01*
X99367620Y-134508342D01*
X99108204Y-134335006D01*
X99116210Y-134327000D01*
X99885591Y-134327000D01*
X99834875Y-134402902D01*
X99805615Y-134550000D01*
X99805615Y-136250000D01*
X99834875Y-136397098D01*
X99918199Y-136521801D01*
X100042902Y-136605125D01*
X100190000Y-136634385D01*
X101890000Y-136634385D01*
X102037098Y-136605125D01*
X102161801Y-136521801D01*
X102245125Y-136397098D01*
X102274385Y-136250000D01*
X102274385Y-136221250D01*
X103498000Y-136221250D01*
X103498000Y-136574990D01*
X103555395Y-136713553D01*
X103661447Y-136819605D01*
X103800010Y-136877000D01*
X104278750Y-136877000D01*
X104373000Y-136782750D01*
X104373000Y-136127000D01*
X104627000Y-136127000D01*
X104627000Y-136782750D01*
X104721250Y-136877000D01*
X105199990Y-136877000D01*
X105338553Y-136819605D01*
X105444605Y-136713553D01*
X105502000Y-136574990D01*
X105502000Y-136221250D01*
X105998000Y-136221250D01*
X105998000Y-136574990D01*
X106055395Y-136713553D01*
X106161447Y-136819605D01*
X106300010Y-136877000D01*
X106778750Y-136877000D01*
X106873000Y-136782750D01*
X106873000Y-136127000D01*
X107127000Y-136127000D01*
X107127000Y-136782750D01*
X107221250Y-136877000D01*
X107699990Y-136877000D01*
X107838553Y-136819605D01*
X107944605Y-136713553D01*
X108000000Y-136579818D01*
X108055395Y-136713553D01*
X108161447Y-136819605D01*
X108300010Y-136877000D01*
X108778750Y-136877000D01*
X108873000Y-136782750D01*
X108873000Y-136127000D01*
X108092250Y-136127000D01*
X108000000Y-136219250D01*
X107907750Y-136127000D01*
X107127000Y-136127000D01*
X106873000Y-136127000D01*
X106092250Y-136127000D01*
X105998000Y-136221250D01*
X105502000Y-136221250D01*
X105407750Y-136127000D01*
X104627000Y-136127000D01*
X104373000Y-136127000D01*
X103592250Y-136127000D01*
X103498000Y-136221250D01*
X102274385Y-136221250D01*
X102274385Y-135425010D01*
X103498000Y-135425010D01*
X103498000Y-135778750D01*
X103592250Y-135873000D01*
X104373000Y-135873000D01*
X104373000Y-135217250D01*
X104627000Y-135217250D01*
X104627000Y-135873000D01*
X105407750Y-135873000D01*
X105502000Y-135778750D01*
X105502000Y-135425010D01*
X105998000Y-135425010D01*
X105998000Y-135778750D01*
X106092250Y-135873000D01*
X106873000Y-135873000D01*
X106873000Y-135217250D01*
X107127000Y-135217250D01*
X107127000Y-135873000D01*
X107907750Y-135873000D01*
X108000000Y-135780750D01*
X108092250Y-135873000D01*
X108873000Y-135873000D01*
X108873000Y-135217250D01*
X108778750Y-135123000D01*
X108300010Y-135123000D01*
X108161447Y-135180395D01*
X108055395Y-135286447D01*
X108000000Y-135420182D01*
X107944605Y-135286447D01*
X107838553Y-135180395D01*
X107699990Y-135123000D01*
X107221250Y-135123000D01*
X107127000Y-135217250D01*
X106873000Y-135217250D01*
X106778750Y-135123000D01*
X106300010Y-135123000D01*
X106161447Y-135180395D01*
X106055395Y-135286447D01*
X105998000Y-135425010D01*
X105502000Y-135425010D01*
X105444605Y-135286447D01*
X105338553Y-135180395D01*
X105199990Y-135123000D01*
X104721250Y-135123000D01*
X104627000Y-135217250D01*
X104373000Y-135217250D01*
X104278750Y-135123000D01*
X103800010Y-135123000D01*
X103661447Y-135180395D01*
X103555395Y-135286447D01*
X103498000Y-135425010D01*
X102274385Y-135425010D01*
X102274385Y-135070905D01*
X103490615Y-133854675D01*
X103490615Y-134500000D01*
X103519875Y-134647098D01*
X103603199Y-134771801D01*
X103727902Y-134855125D01*
X103875000Y-134884385D01*
X105125000Y-134884385D01*
X105272098Y-134855125D01*
X105396801Y-134771801D01*
X105480125Y-134647098D01*
X105509385Y-134500000D01*
X105509385Y-133500000D01*
X105480125Y-133352902D01*
X105396801Y-133228199D01*
X105289073Y-133156217D01*
X105397645Y-133047645D01*
X105511885Y-132876675D01*
X105552000Y-132675000D01*
X105552000Y-132034385D01*
X105875000Y-132034385D01*
X106000000Y-132009521D01*
X106125000Y-132034385D01*
X106525000Y-132034385D01*
X106655277Y-132008471D01*
X106700010Y-132027000D01*
X106780750Y-132027000D01*
X106875000Y-131932750D01*
X106875000Y-131804768D01*
X106880125Y-131797098D01*
X106909385Y-131650000D01*
X106909385Y-130275533D01*
X107040615Y-130275533D01*
X107040615Y-131650000D01*
X107069875Y-131797098D01*
X107075000Y-131804768D01*
X107075000Y-131932750D01*
X107098000Y-131955750D01*
X107098000Y-132356709D01*
X106627355Y-132827355D01*
X106513115Y-132998325D01*
X106509953Y-133014222D01*
X106489785Y-133115615D01*
X106375000Y-133115615D01*
X106227902Y-133144875D01*
X106103199Y-133228199D01*
X106019875Y-133352902D01*
X105990615Y-133500000D01*
X105990615Y-134500000D01*
X106019875Y-134647098D01*
X106103199Y-134771801D01*
X106227902Y-134855125D01*
X106375000Y-134884385D01*
X107625000Y-134884385D01*
X107772098Y-134855125D01*
X107896801Y-134771801D01*
X107980125Y-134647098D01*
X108000000Y-134547181D01*
X108019875Y-134647098D01*
X108103199Y-134771801D01*
X108227902Y-134855125D01*
X108375000Y-134884385D01*
X109264094Y-134884385D01*
X109502709Y-135123000D01*
X109221250Y-135123000D01*
X109127000Y-135217250D01*
X109127000Y-135873000D01*
X109907750Y-135873000D01*
X109965615Y-135815135D01*
X109965615Y-136184865D01*
X109907750Y-136127000D01*
X109127000Y-136127000D01*
X109127000Y-136782750D01*
X109221250Y-136877000D01*
X109699990Y-136877000D01*
X109838553Y-136819605D01*
X109944605Y-136713553D01*
X110002000Y-136574990D01*
X110002000Y-136457761D01*
X110078199Y-136571801D01*
X110202902Y-136655125D01*
X110350000Y-136684385D01*
X111289095Y-136684385D01*
X111977710Y-137373000D01*
X93893291Y-137373000D01*
X93572647Y-137052357D01*
X93572645Y-137052354D01*
X93318978Y-136798687D01*
X93321801Y-136796801D01*
X93405125Y-136672098D01*
X93434385Y-136525000D01*
X93434385Y-135716352D01*
X94774472Y-135716352D01*
X94985778Y-136145953D01*
X95345400Y-136461989D01*
X95643649Y-136585518D01*
X95833000Y-136525608D01*
X95833000Y-135527000D01*
X96087000Y-135527000D01*
X96087000Y-136525608D01*
X96276351Y-136585518D01*
X96574600Y-136461989D01*
X96934222Y-136145953D01*
X97145528Y-135716352D01*
X97086171Y-135527000D01*
X96087000Y-135527000D01*
X95833000Y-135527000D01*
X94833829Y-135527000D01*
X94774472Y-135716352D01*
X93434385Y-135716352D01*
X93434385Y-135275000D01*
X93405125Y-135127902D01*
X93375556Y-135083648D01*
X94774472Y-135083648D01*
X94833829Y-135273000D01*
X95833000Y-135273000D01*
X95833000Y-134274392D01*
X96087000Y-134274392D01*
X96087000Y-135273000D01*
X97086171Y-135273000D01*
X97145528Y-135083648D01*
X96934222Y-134654047D01*
X96574600Y-134338011D01*
X96276351Y-134214482D01*
X96087000Y-134274392D01*
X95833000Y-134274392D01*
X95643649Y-134214482D01*
X95345400Y-134338011D01*
X94985778Y-134654047D01*
X94774472Y-135083648D01*
X93375556Y-135083648D01*
X93321801Y-135003199D01*
X93197098Y-134919875D01*
X93077000Y-134895986D01*
X93077000Y-134815032D01*
X93096801Y-134801801D01*
X93180125Y-134677098D01*
X93209385Y-134530000D01*
X93209385Y-133830905D01*
X94328005Y-132712286D01*
X94344875Y-132797098D01*
X94428199Y-132921801D01*
X94552902Y-133005125D01*
X94700000Y-133034385D01*
X95400000Y-133034385D01*
X95547098Y-133005125D01*
X95671801Y-132921801D01*
X95755125Y-132797098D01*
X95784385Y-132650000D01*
X95784385Y-131350000D01*
X95755125Y-131202902D01*
X95671801Y-131078199D01*
X95557761Y-131002000D01*
X95574990Y-131002000D01*
X95713553Y-130944605D01*
X95819605Y-130838553D01*
X95877000Y-130699990D01*
X95877000Y-130221250D01*
X95782750Y-130127000D01*
X95127000Y-130127000D01*
X95127000Y-130907750D01*
X95184865Y-130965615D01*
X94815135Y-130965615D01*
X94873000Y-130907750D01*
X94873000Y-130127000D01*
X94217250Y-130127000D01*
X94123000Y-130221250D01*
X94123000Y-130699990D01*
X94180395Y-130838553D01*
X94286447Y-130944605D01*
X94425010Y-131002000D01*
X94542239Y-131002000D01*
X94428199Y-131078199D01*
X94344875Y-131202902D01*
X94315615Y-131350000D01*
X94315615Y-131473000D01*
X94295000Y-131473000D01*
X94093326Y-131513115D01*
X94040631Y-131548325D01*
X93922354Y-131627355D01*
X93206821Y-132342888D01*
X93209385Y-132330000D01*
X93209385Y-131270000D01*
X93180125Y-131122902D01*
X93096801Y-130998199D01*
X92972098Y-130914875D01*
X92907372Y-130902000D01*
X93124990Y-130902000D01*
X93263553Y-130844605D01*
X93369605Y-130738553D01*
X93427000Y-130599990D01*
X93427000Y-130121250D01*
X93332750Y-130027000D01*
X92677000Y-130027000D01*
X92677000Y-130807750D01*
X92754865Y-130885615D01*
X92345135Y-130885615D01*
X92423000Y-130807750D01*
X92423000Y-130027000D01*
X91767250Y-130027000D01*
X91673000Y-130121250D01*
X91673000Y-130599990D01*
X91730395Y-130738553D01*
X91836447Y-130844605D01*
X91975010Y-130902000D01*
X92092628Y-130902000D01*
X92027902Y-130914875D01*
X92018296Y-130921293D01*
X91949990Y-130893000D01*
X91771250Y-130893000D01*
X91677000Y-130987250D01*
X91677000Y-131673000D01*
X91790615Y-131673000D01*
X91790615Y-131927000D01*
X91677000Y-131927000D01*
X91677000Y-132373000D01*
X91423000Y-132373000D01*
X91423000Y-131927000D01*
X91309385Y-131927000D01*
X91309385Y-131673000D01*
X91423000Y-131673000D01*
X91423000Y-130987250D01*
X91328750Y-130893000D01*
X91150010Y-130893000D01*
X91081704Y-130921293D01*
X91077000Y-130918150D01*
X91077000Y-130904014D01*
X91197098Y-130880125D01*
X91321801Y-130796801D01*
X91405125Y-130672098D01*
X91434385Y-130525000D01*
X91434385Y-129275000D01*
X91419469Y-129200010D01*
X91673000Y-129200010D01*
X91673000Y-129678750D01*
X91767250Y-129773000D01*
X92423000Y-129773000D01*
X92423000Y-128992250D01*
X92677000Y-128992250D01*
X92677000Y-129773000D01*
X93332750Y-129773000D01*
X93427000Y-129678750D01*
X93427000Y-129300010D01*
X94123000Y-129300010D01*
X94123000Y-129778750D01*
X94217250Y-129873000D01*
X94873000Y-129873000D01*
X94873000Y-129092250D01*
X95127000Y-129092250D01*
X95127000Y-129873000D01*
X95782750Y-129873000D01*
X95877000Y-129778750D01*
X95877000Y-129300010D01*
X95819605Y-129161447D01*
X95713553Y-129055395D01*
X95574990Y-128998000D01*
X95221250Y-128998000D01*
X95127000Y-129092250D01*
X94873000Y-129092250D01*
X94778750Y-128998000D01*
X94425010Y-128998000D01*
X94286447Y-129055395D01*
X94180395Y-129161447D01*
X94123000Y-129300010D01*
X93427000Y-129300010D01*
X93427000Y-129200010D01*
X93369605Y-129061447D01*
X93263553Y-128955395D01*
X93124990Y-128898000D01*
X92771250Y-128898000D01*
X92677000Y-128992250D01*
X92423000Y-128992250D01*
X92328750Y-128898000D01*
X91975010Y-128898000D01*
X91836447Y-128955395D01*
X91730395Y-129061447D01*
X91673000Y-129200010D01*
X91419469Y-129200010D01*
X91405125Y-129127902D01*
X91321801Y-129003199D01*
X91197098Y-128919875D01*
X91050000Y-128890615D01*
X90050000Y-128890615D01*
X89902902Y-128919875D01*
X89778199Y-129003199D01*
X89694875Y-129127902D01*
X89665615Y-129275000D01*
X89665615Y-130525000D01*
X89694875Y-130672098D01*
X89778199Y-130796801D01*
X89902902Y-130880125D01*
X90023000Y-130904014D01*
X90023000Y-130984968D01*
X90003199Y-130998199D01*
X89919875Y-131122902D01*
X89890615Y-131270000D01*
X89890615Y-131273000D01*
X88660000Y-131273000D01*
X88458326Y-131313115D01*
X88403124Y-131350000D01*
X88287354Y-131427355D01*
X87705777Y-132008933D01*
X87324038Y-131933000D01*
X87275962Y-131933000D01*
X86806409Y-132026400D01*
X86408342Y-132292380D01*
X86142362Y-132690447D01*
X86048962Y-133160000D01*
X86142362Y-133629553D01*
X86408342Y-134027620D01*
X86806409Y-134293600D01*
X87275962Y-134387000D01*
X87324038Y-134387000D01*
X87793591Y-134293600D01*
X88191658Y-134027620D01*
X88457638Y-133629553D01*
X88551038Y-133160000D01*
X88467129Y-132738162D01*
X88878291Y-132327000D01*
X89890615Y-132327000D01*
X89890615Y-132330000D01*
X89919875Y-132477098D01*
X90003199Y-132601801D01*
X90077230Y-132651267D01*
X90113115Y-132831675D01*
X90227355Y-133002645D01*
X90310325Y-133085615D01*
X90275000Y-133085615D01*
X90127902Y-133114875D01*
X90003199Y-133198199D01*
X89919875Y-133322902D01*
X89890615Y-133470000D01*
X89890615Y-134530000D01*
X89919875Y-134677098D01*
X90003199Y-134801801D01*
X90127902Y-134885125D01*
X90192628Y-134898000D01*
X89975010Y-134898000D01*
X89836447Y-134955395D01*
X89730395Y-135061447D01*
X89673000Y-135200010D01*
X89673000Y-135678750D01*
X89767250Y-135773000D01*
X90423000Y-135773000D01*
X90423000Y-134992250D01*
X90345135Y-134914385D01*
X90754865Y-134914385D01*
X90677000Y-134992250D01*
X90677000Y-135773000D01*
X91332750Y-135773000D01*
X91427000Y-135678750D01*
X91427000Y-135200010D01*
X91369605Y-135061447D01*
X91263553Y-134955395D01*
X91124990Y-134898000D01*
X91007372Y-134898000D01*
X91072098Y-134885125D01*
X91196801Y-134801801D01*
X91280125Y-134677098D01*
X91309385Y-134530000D01*
X91309385Y-133470000D01*
X91300832Y-133427000D01*
X91799168Y-133427000D01*
X91790615Y-133470000D01*
X91790615Y-134530000D01*
X91819875Y-134677098D01*
X91903199Y-134801801D01*
X92023000Y-134881850D01*
X92023000Y-134895986D01*
X91902902Y-134919875D01*
X91778199Y-135003199D01*
X91694875Y-135127902D01*
X91665615Y-135275000D01*
X91665615Y-136525000D01*
X91694875Y-136672098D01*
X91778199Y-136796801D01*
X91902902Y-136880125D01*
X92008015Y-136901033D01*
X92013115Y-136926675D01*
X92127355Y-137097645D01*
X92827354Y-137797645D01*
X92827357Y-137797647D01*
X93302354Y-138272645D01*
X93416594Y-138348978D01*
X93473326Y-138386885D01*
X93675000Y-138427000D01*
X117210002Y-138427000D01*
X117411677Y-138386885D01*
X117582647Y-138272645D01*
X118572646Y-137282647D01*
X118686885Y-137111676D01*
X118727000Y-136910002D01*
X118727000Y-134200000D01*
X118720564Y-134167645D01*
X118686885Y-133998325D01*
X118572645Y-133827355D01*
X118272645Y-133527355D01*
X118101675Y-133413115D01*
X117984385Y-133389785D01*
X117984385Y-133300000D01*
X117955125Y-133152902D01*
X117871801Y-133028199D01*
X117747098Y-132944875D01*
X117600000Y-132915615D01*
X116400000Y-132915615D01*
X116252902Y-132944875D01*
X116128199Y-133028199D01*
X116044875Y-133152902D01*
X116015615Y-133300000D01*
X116015615Y-133373000D01*
X115984385Y-133373000D01*
X115984385Y-133300000D01*
X115955125Y-133152902D01*
X115871801Y-133028199D01*
X115747098Y-132944875D01*
X115600000Y-132915615D01*
X115510215Y-132915615D01*
X115486885Y-132798326D01*
X115472418Y-132776675D01*
X115372646Y-132627355D01*
X115101642Y-132356351D01*
X119814482Y-132356351D01*
X119938011Y-132654600D01*
X120254047Y-133014222D01*
X120683648Y-133225528D01*
X120873000Y-133166171D01*
X120873000Y-132167000D01*
X121127000Y-132167000D01*
X121127000Y-133166171D01*
X121316352Y-133225528D01*
X121745953Y-133014222D01*
X122061989Y-132654600D01*
X122185518Y-132356351D01*
X122125608Y-132167000D01*
X121127000Y-132167000D01*
X120873000Y-132167000D01*
X119874392Y-132167000D01*
X119814482Y-132356351D01*
X115101642Y-132356351D01*
X114468940Y-131723649D01*
X119814482Y-131723649D01*
X119874392Y-131913000D01*
X120873000Y-131913000D01*
X120873000Y-130913829D01*
X121127000Y-130913829D01*
X121127000Y-131913000D01*
X122125608Y-131913000D01*
X122185518Y-131723649D01*
X122061989Y-131425400D01*
X121745953Y-131065778D01*
X121316352Y-130854472D01*
X121127000Y-130913829D01*
X120873000Y-130913829D01*
X120683648Y-130854472D01*
X120254047Y-131065778D01*
X119938011Y-131425400D01*
X119814482Y-131723649D01*
X114468940Y-131723649D01*
X114150290Y-131405000D01*
X114872645Y-130682645D01*
X114986885Y-130511675D01*
X115027000Y-130310000D01*
X115027000Y-130181750D01*
X116348000Y-130181750D01*
X116348000Y-130274990D01*
X116405395Y-130413553D01*
X116511447Y-130519605D01*
X116650010Y-130577000D01*
X117228750Y-130577000D01*
X117323000Y-130482750D01*
X117323000Y-130087500D01*
X117577000Y-130087500D01*
X117577000Y-130482750D01*
X117671250Y-130577000D01*
X118249990Y-130577000D01*
X118388553Y-130519605D01*
X118494605Y-130413553D01*
X118552000Y-130274990D01*
X118552000Y-130181750D01*
X118457750Y-130087500D01*
X117577000Y-130087500D01*
X117323000Y-130087500D01*
X116442250Y-130087500D01*
X116348000Y-130181750D01*
X115027000Y-130181750D01*
X115027000Y-129531750D01*
X116348000Y-129531750D01*
X116348000Y-129624990D01*
X116358360Y-129650000D01*
X116348000Y-129675010D01*
X116348000Y-129768250D01*
X116442250Y-129862500D01*
X116504342Y-129862500D01*
X116511447Y-129869605D01*
X116650010Y-129927000D01*
X117228750Y-129927000D01*
X117293250Y-129862500D01*
X117323000Y-129862500D01*
X117323000Y-129437500D01*
X117577000Y-129437500D01*
X117577000Y-129862500D01*
X117606750Y-129862500D01*
X117671250Y-129927000D01*
X118249990Y-129927000D01*
X118388553Y-129869605D01*
X118395658Y-129862500D01*
X118457750Y-129862500D01*
X118552000Y-129768250D01*
X118552000Y-129675010D01*
X118541640Y-129650000D01*
X118552000Y-129624990D01*
X118552000Y-129531750D01*
X118457750Y-129437500D01*
X118395658Y-129437500D01*
X118388553Y-129430395D01*
X118249990Y-129373000D01*
X117671250Y-129373000D01*
X117606750Y-129437500D01*
X117577000Y-129437500D01*
X117323000Y-129437500D01*
X117293250Y-129437500D01*
X117228750Y-129373000D01*
X116650010Y-129373000D01*
X116511447Y-129430395D01*
X116504342Y-129437500D01*
X116442250Y-129437500D01*
X116348000Y-129531750D01*
X115027000Y-129531750D01*
X115027000Y-128881750D01*
X116348000Y-128881750D01*
X116348000Y-128974990D01*
X116358360Y-129000000D01*
X116348000Y-129025010D01*
X116348000Y-129118250D01*
X116442250Y-129212500D01*
X116504342Y-129212500D01*
X116511447Y-129219605D01*
X116650010Y-129277000D01*
X117228750Y-129277000D01*
X117293250Y-129212500D01*
X117323000Y-129212500D01*
X117323000Y-128787500D01*
X117577000Y-128787500D01*
X117577000Y-129212500D01*
X117606750Y-129212500D01*
X117671250Y-129277000D01*
X118249990Y-129277000D01*
X118388553Y-129219605D01*
X118395658Y-129212500D01*
X118457750Y-129212500D01*
X118552000Y-129118250D01*
X118552000Y-129025010D01*
X118541640Y-129000000D01*
X118552000Y-128974990D01*
X118552000Y-128881750D01*
X118457750Y-128787500D01*
X118395658Y-128787500D01*
X118388553Y-128780395D01*
X118249990Y-128723000D01*
X117671250Y-128723000D01*
X117606750Y-128787500D01*
X117577000Y-128787500D01*
X117323000Y-128787500D01*
X117293250Y-128787500D01*
X117228750Y-128723000D01*
X116650010Y-128723000D01*
X116511447Y-128780395D01*
X116504342Y-128787500D01*
X116442250Y-128787500D01*
X116348000Y-128881750D01*
X115027000Y-128881750D01*
X115027000Y-128400000D01*
X115007686Y-128302902D01*
X114993534Y-128231750D01*
X116348000Y-128231750D01*
X116348000Y-128324990D01*
X116358360Y-128350000D01*
X116348000Y-128375010D01*
X116348000Y-128468250D01*
X116442250Y-128562500D01*
X116504342Y-128562500D01*
X116511447Y-128569605D01*
X116650010Y-128627000D01*
X117228750Y-128627000D01*
X117293250Y-128562500D01*
X117323000Y-128562500D01*
X117323000Y-128137500D01*
X117577000Y-128137500D01*
X117577000Y-128562500D01*
X117606750Y-128562500D01*
X117671250Y-128627000D01*
X118249990Y-128627000D01*
X118388553Y-128569605D01*
X118395658Y-128562500D01*
X118457750Y-128562500D01*
X118552000Y-128468250D01*
X118552000Y-128375010D01*
X118541640Y-128350000D01*
X118552000Y-128324990D01*
X118552000Y-128231750D01*
X118457750Y-128137500D01*
X118395658Y-128137500D01*
X118388553Y-128130395D01*
X118249990Y-128073000D01*
X117671250Y-128073000D01*
X117606750Y-128137500D01*
X117577000Y-128137500D01*
X117323000Y-128137500D01*
X117293250Y-128137500D01*
X117228750Y-128073000D01*
X116650010Y-128073000D01*
X116511447Y-128130395D01*
X116504342Y-128137500D01*
X116442250Y-128137500D01*
X116348000Y-128231750D01*
X114993534Y-128231750D01*
X114986885Y-128198325D01*
X114872645Y-128027355D01*
X114570300Y-127725010D01*
X116348000Y-127725010D01*
X116348000Y-127818250D01*
X116442250Y-127912500D01*
X117323000Y-127912500D01*
X117323000Y-127517250D01*
X117577000Y-127517250D01*
X117577000Y-127912500D01*
X118457750Y-127912500D01*
X118552000Y-127818250D01*
X118552000Y-127725010D01*
X118494605Y-127586447D01*
X118388553Y-127480395D01*
X118249990Y-127423000D01*
X117671250Y-127423000D01*
X117577000Y-127517250D01*
X117323000Y-127517250D01*
X117228750Y-127423000D01*
X116650010Y-127423000D01*
X116511447Y-127480395D01*
X116405395Y-127586447D01*
X116348000Y-127725010D01*
X114570300Y-127725010D01*
X113477000Y-126631710D01*
X113477000Y-125985145D01*
X113571801Y-125921801D01*
X113582591Y-125905652D01*
X113627355Y-125972645D01*
X114227355Y-126572645D01*
X114398325Y-126686885D01*
X114600000Y-126727000D01*
X116700000Y-126727000D01*
X116901675Y-126686885D01*
X117072645Y-126572645D01*
X117322645Y-126322646D01*
X117436884Y-126151675D01*
X117436885Y-126151674D01*
X117468938Y-125990532D01*
X117571801Y-125921801D01*
X117655125Y-125797098D01*
X117684385Y-125650000D01*
X117684385Y-125527000D01*
X119971710Y-125527000D01*
X120170325Y-125725615D01*
X120150000Y-125725615D01*
X120002902Y-125754875D01*
X119878199Y-125838199D01*
X119794875Y-125962902D01*
X119765615Y-126110000D01*
X119765615Y-127810000D01*
X119794875Y-127957098D01*
X119878199Y-128081801D01*
X120002902Y-128165125D01*
X120150000Y-128194385D01*
X121850000Y-128194385D01*
X121997098Y-128165125D01*
X122073000Y-128114409D01*
X122073000Y-128381710D01*
X121850099Y-128604611D01*
X121493591Y-128366400D01*
X121024038Y-128273000D01*
X120975962Y-128273000D01*
X120506409Y-128366400D01*
X120108342Y-128632380D01*
X119842362Y-129030447D01*
X119748962Y-129500000D01*
X119842362Y-129969553D01*
X120108342Y-130367620D01*
X120506409Y-130633600D01*
X120975962Y-130727000D01*
X121024038Y-130727000D01*
X121493591Y-130633600D01*
X121891658Y-130367620D01*
X122157638Y-129969553D01*
X122202805Y-129742485D01*
X122972645Y-128972645D01*
X123086885Y-128801675D01*
X123102534Y-128723000D01*
X123127000Y-128600000D01*
X123127000Y-126049998D01*
X123086885Y-125848324D01*
X123086885Y-125848323D01*
X122972645Y-125677353D01*
X121222647Y-123927355D01*
X121051677Y-123813115D01*
X120850002Y-123773000D01*
X118527000Y-123773000D01*
X118527000Y-123400000D01*
X118486885Y-123198326D01*
X118403362Y-123073326D01*
X118372645Y-123027354D01*
X117972645Y-122627355D01*
X117801675Y-122513115D01*
X117684385Y-122489785D01*
X117684385Y-122350000D01*
X117655125Y-122202902D01*
X117571801Y-122078199D01*
X117447098Y-121994875D01*
X117300000Y-121965615D01*
X116600000Y-121965615D01*
X116523199Y-121980892D01*
X116486885Y-121798325D01*
X116372645Y-121627355D01*
X114972645Y-120227355D01*
X114801675Y-120113115D01*
X114600000Y-120073000D01*
X109000000Y-120073000D01*
X108831785Y-120106460D01*
X108798325Y-120113115D01*
X108627355Y-120227355D01*
X105952355Y-122902355D01*
X105838115Y-123073325D01*
X105838115Y-123073326D01*
X105798000Y-123275000D01*
X105798000Y-123965615D01*
X105475000Y-123965615D01*
X105350000Y-123990479D01*
X105225000Y-123965615D01*
X104902000Y-123965615D01*
X104902000Y-121275000D01*
X104861885Y-121073326D01*
X104747645Y-120902355D01*
X104172645Y-120327355D01*
X104001675Y-120213115D01*
X103800000Y-120173000D01*
X92700000Y-120173000D01*
X92531785Y-120206460D01*
X92498325Y-120213115D01*
X92327355Y-120327355D01*
X91127355Y-121527355D01*
X91013115Y-121698325D01*
X91010173Y-121713115D01*
X90973000Y-121900000D01*
X90973000Y-123381709D01*
X90581710Y-123773000D01*
X88534385Y-123773000D01*
X88534385Y-123450000D01*
X88505125Y-123302902D01*
X88421801Y-123178199D01*
X88297098Y-123094875D01*
X88150000Y-123065615D01*
X86450000Y-123065615D01*
X86302902Y-123094875D01*
X86178199Y-123178199D01*
X86094875Y-123302902D01*
X86065615Y-123450000D01*
X86065615Y-125150000D01*
X86094875Y-125297098D01*
X86178199Y-125421801D01*
X86302902Y-125505125D01*
X86450000Y-125534385D01*
X88150000Y-125534385D01*
X88297098Y-125505125D01*
X88421801Y-125421801D01*
X88505125Y-125297098D01*
X88534385Y-125150000D01*
X88534385Y-124827000D01*
X90800000Y-124827000D01*
X91001675Y-124786885D01*
X91172645Y-124672645D01*
X91833735Y-124011555D01*
X93168050Y-124011555D01*
X93280891Y-124205833D01*
X93797082Y-124389235D01*
X94344166Y-124361140D01*
X94719109Y-124205833D01*
X94831950Y-124011555D01*
X99668050Y-124011555D01*
X99780891Y-124205833D01*
X100297082Y-124389235D01*
X100844166Y-124361140D01*
X101219109Y-124205833D01*
X101331950Y-124011555D01*
X100500000Y-123179605D01*
X99668050Y-124011555D01*
X94831950Y-124011555D01*
X94000000Y-123179605D01*
X93168050Y-124011555D01*
X91833735Y-124011555D01*
X91872645Y-123972646D01*
X91986884Y-123801675D01*
X91986885Y-123801674D01*
X92027000Y-123600000D01*
X92027000Y-122797082D01*
X92610765Y-122797082D01*
X92638860Y-123344166D01*
X92794167Y-123719109D01*
X92988445Y-123831950D01*
X93820395Y-123000000D01*
X94179605Y-123000000D01*
X95011555Y-123831950D01*
X95205833Y-123719109D01*
X95389235Y-123202918D01*
X95368394Y-122797082D01*
X99110765Y-122797082D01*
X99138860Y-123344166D01*
X99294167Y-123719109D01*
X99488445Y-123831950D01*
X100320395Y-123000000D01*
X100679605Y-123000000D01*
X101511555Y-123831950D01*
X101705833Y-123719109D01*
X101889235Y-123202918D01*
X101861140Y-122655834D01*
X101705833Y-122280891D01*
X101511555Y-122168050D01*
X100679605Y-123000000D01*
X100320395Y-123000000D01*
X99488445Y-122168050D01*
X99294167Y-122280891D01*
X99110765Y-122797082D01*
X95368394Y-122797082D01*
X95361140Y-122655834D01*
X95205833Y-122280891D01*
X95011555Y-122168050D01*
X94179605Y-123000000D01*
X93820395Y-123000000D01*
X92988445Y-122168050D01*
X92794167Y-122280891D01*
X92610765Y-122797082D01*
X92027000Y-122797082D01*
X92027000Y-122118290D01*
X92156845Y-121988445D01*
X93168050Y-121988445D01*
X94000000Y-122820395D01*
X94831950Y-121988445D01*
X99668050Y-121988445D01*
X100500000Y-122820395D01*
X101331950Y-121988445D01*
X101219109Y-121794167D01*
X100702918Y-121610765D01*
X100155834Y-121638860D01*
X99780891Y-121794167D01*
X99668050Y-121988445D01*
X94831950Y-121988445D01*
X94719109Y-121794167D01*
X94202918Y-121610765D01*
X93655834Y-121638860D01*
X93280891Y-121794167D01*
X93168050Y-121988445D01*
X92156845Y-121988445D01*
X92918290Y-121227000D01*
X103581710Y-121227000D01*
X103848000Y-121493290D01*
X103848000Y-123965615D01*
X103525000Y-123965615D01*
X103400000Y-123990479D01*
X103275000Y-123965615D01*
X102875000Y-123965615D01*
X102727902Y-123994875D01*
X102603199Y-124078199D01*
X102519875Y-124202902D01*
X102490615Y-124350000D01*
X102490615Y-125750000D01*
X102519875Y-125897098D01*
X102603199Y-126021801D01*
X102727902Y-126105125D01*
X102875000Y-126134385D01*
X103275000Y-126134385D01*
X103400000Y-126109521D01*
X103525000Y-126134385D01*
X103925000Y-126134385D01*
X104050000Y-126109521D01*
X104175000Y-126134385D01*
X104575000Y-126134385D01*
X104700000Y-126109521D01*
X104825000Y-126134385D01*
X105225000Y-126134385D01*
X105350000Y-126109521D01*
X105475000Y-126134385D01*
X105875000Y-126134385D01*
X106000000Y-126109521D01*
X106125000Y-126134385D01*
X106525000Y-126134385D01*
X106650000Y-126109521D01*
X106775000Y-126134385D01*
X107175000Y-126134385D01*
X107300000Y-126109521D01*
X107425000Y-126134385D01*
X107748000Y-126134385D01*
X107748000Y-126425000D01*
X107788115Y-126626675D01*
X107902355Y-126797645D01*
X110152355Y-129047645D01*
X110323325Y-129161885D01*
X110356785Y-129168540D01*
X110525000Y-129202000D01*
X110531750Y-129202000D01*
X110542250Y-129212500D01*
X110614109Y-129212500D01*
X110677902Y-129255125D01*
X110825000Y-129284385D01*
X112275000Y-129284385D01*
X112422098Y-129255125D01*
X112485891Y-129212500D01*
X112557750Y-129212500D01*
X112652000Y-129118250D01*
X112652000Y-129025010D01*
X112640190Y-128996498D01*
X112659385Y-128900000D01*
X112659385Y-128450000D01*
X112639493Y-128350000D01*
X112659385Y-128250000D01*
X112659385Y-127800000D01*
X112630125Y-127652902D01*
X112546801Y-127528199D01*
X112422098Y-127444875D01*
X112275000Y-127415615D01*
X112077000Y-127415615D01*
X112077000Y-126850000D01*
X112036885Y-126648326D01*
X111922645Y-126477355D01*
X111577000Y-126131710D01*
X111577000Y-125985145D01*
X111671801Y-125921801D01*
X111755125Y-125797098D01*
X111784385Y-125650000D01*
X111784385Y-124350000D01*
X111755125Y-124202902D01*
X111671801Y-124078199D01*
X111554768Y-124000000D01*
X111671801Y-123921801D01*
X111755125Y-123797098D01*
X111784385Y-123650000D01*
X111784385Y-122352022D01*
X112215615Y-122352022D01*
X112215615Y-123650000D01*
X112244875Y-123797098D01*
X112328199Y-123921801D01*
X112423000Y-123985145D01*
X112423000Y-124014855D01*
X112328199Y-124078199D01*
X112244875Y-124202902D01*
X112215615Y-124350000D01*
X112215615Y-125650000D01*
X112244875Y-125797098D01*
X112328199Y-125921801D01*
X112423000Y-125985145D01*
X112423000Y-126850000D01*
X112463115Y-127051675D01*
X112577355Y-127222645D01*
X113973000Y-128618290D01*
X113973000Y-130091710D01*
X113186710Y-130878000D01*
X112077000Y-130878000D01*
X112077000Y-130584385D01*
X112275000Y-130584385D01*
X112422098Y-130555125D01*
X112546801Y-130471801D01*
X112630125Y-130347098D01*
X112659385Y-130200000D01*
X112659385Y-129750000D01*
X112640190Y-129653502D01*
X112652000Y-129624990D01*
X112652000Y-129531750D01*
X112557750Y-129437500D01*
X112485891Y-129437500D01*
X112422098Y-129394875D01*
X112275000Y-129365615D01*
X110825000Y-129365615D01*
X110677902Y-129394875D01*
X110614109Y-129437500D01*
X110542250Y-129437500D01*
X110448000Y-129531750D01*
X110448000Y-129624990D01*
X110459810Y-129653502D01*
X110440615Y-129750000D01*
X110440615Y-130200000D01*
X110469875Y-130347098D01*
X110553199Y-130471801D01*
X110677902Y-130555125D01*
X110825000Y-130584385D01*
X111023000Y-130584385D01*
X111023000Y-131155000D01*
X111063115Y-131356675D01*
X111177355Y-131527645D01*
X111427354Y-131777645D01*
X111539166Y-131852355D01*
X111598326Y-131891885D01*
X111800000Y-131932000D01*
X113186710Y-131932000D01*
X114220940Y-132966231D01*
X114128199Y-133028199D01*
X114044875Y-133152902D01*
X114015615Y-133300000D01*
X114015615Y-133605638D01*
X114005125Y-133552902D01*
X113921801Y-133428199D01*
X113797098Y-133344875D01*
X113650000Y-133315615D01*
X112710905Y-133315615D01*
X110427000Y-131031710D01*
X110427000Y-130214998D01*
X110386885Y-130013324D01*
X110272645Y-129842353D01*
X109806182Y-129375888D01*
X109635211Y-129261648D01*
X109433537Y-129221533D01*
X106526467Y-129221533D01*
X106324793Y-129261648D01*
X106290765Y-129284385D01*
X106153821Y-129375888D01*
X105952355Y-129577355D01*
X105838115Y-129748325D01*
X105814785Y-129865615D01*
X105552000Y-129865615D01*
X105552000Y-129825000D01*
X105532728Y-129728113D01*
X105511885Y-129623325D01*
X105397645Y-129452355D01*
X105172645Y-129227355D01*
X105001675Y-129113115D01*
X104800000Y-129073000D01*
X102918290Y-129073000D01*
X102627000Y-128781710D01*
X102627000Y-126800000D01*
X102586885Y-126598326D01*
X102572634Y-126576998D01*
X102472646Y-126427355D01*
X101172645Y-125127355D01*
X101001675Y-125013115D01*
X100800000Y-124973000D01*
X92200000Y-124973000D01*
X92031785Y-125006460D01*
X91998325Y-125013115D01*
X91827355Y-125127355D01*
X90641710Y-126313000D01*
X88419253Y-126313000D01*
X88191658Y-125972380D01*
X87793591Y-125706400D01*
X87324038Y-125613000D01*
X87275962Y-125613000D01*
X86806409Y-125706400D01*
X86408342Y-125972380D01*
X86142362Y-126370447D01*
X86048962Y-126840000D01*
X85452000Y-126840000D01*
X85452000Y-119952000D01*
X123548000Y-119952000D01*
X123548000Y-138548000D01*
X123548000Y-138548000D01*
G37*
X123548000Y-138548000D02*
X85452000Y-138548000D01*
X85452000Y-135921250D01*
X86073000Y-135921250D01*
X86073000Y-136624990D01*
X86130395Y-136763553D01*
X86236447Y-136869605D01*
X86375010Y-136927000D01*
X87078750Y-136927000D01*
X87173000Y-136832750D01*
X87173000Y-135827000D01*
X87427000Y-135827000D01*
X87427000Y-136832750D01*
X87521250Y-136927000D01*
X88224990Y-136927000D01*
X88363553Y-136869605D01*
X88469605Y-136763553D01*
X88527000Y-136624990D01*
X88527000Y-136121250D01*
X89673000Y-136121250D01*
X89673000Y-136599990D01*
X89730395Y-136738553D01*
X89836447Y-136844605D01*
X89975010Y-136902000D01*
X90328750Y-136902000D01*
X90423000Y-136807750D01*
X90423000Y-136027000D01*
X90677000Y-136027000D01*
X90677000Y-136807750D01*
X90771250Y-136902000D01*
X91124990Y-136902000D01*
X91263553Y-136844605D01*
X91369605Y-136738553D01*
X91427000Y-136599990D01*
X91427000Y-136121250D01*
X91332750Y-136027000D01*
X90677000Y-136027000D01*
X90423000Y-136027000D01*
X89767250Y-136027000D01*
X89673000Y-136121250D01*
X88527000Y-136121250D01*
X88527000Y-135921250D01*
X88432750Y-135827000D01*
X87427000Y-135827000D01*
X87173000Y-135827000D01*
X86167250Y-135827000D01*
X86073000Y-135921250D01*
X85452000Y-135921250D01*
X85452000Y-134775010D01*
X86073000Y-134775010D01*
X86073000Y-135478750D01*
X86167250Y-135573000D01*
X87173000Y-135573000D01*
X87173000Y-134567250D01*
X87427000Y-134567250D01*
X87427000Y-135573000D01*
X88432750Y-135573000D01*
X88527000Y-135478750D01*
X88527000Y-134775010D01*
X88469605Y-134636447D01*
X88363553Y-134530395D01*
X88224990Y-134473000D01*
X87521250Y-134473000D01*
X87427000Y-134567250D01*
X87173000Y-134567250D01*
X87078750Y-134473000D01*
X86375010Y-134473000D01*
X86236447Y-134530395D01*
X86130395Y-134636447D01*
X86073000Y-134775010D01*
X85452000Y-134775010D01*
X85452000Y-129696351D01*
X86114482Y-129696351D01*
X86238011Y-129994600D01*
X86554047Y-130354222D01*
X86983648Y-130565528D01*
X87173000Y-130506171D01*
X87173000Y-129507000D01*
X87427000Y-129507000D01*
X87427000Y-130506171D01*
X87616352Y-130565528D01*
X88045953Y-130354222D01*
X88361989Y-129994600D01*
X88485518Y-129696351D01*
X88425608Y-129507000D01*
X87427000Y-129507000D01*
X87173000Y-129507000D01*
X86174392Y-129507000D01*
X86114482Y-129696351D01*
X85452000Y-129696351D01*
X85452000Y-129063649D01*
X86114482Y-129063649D01*
X86174392Y-129253000D01*
X87173000Y-129253000D01*
X87173000Y-128253829D01*
X87427000Y-128253829D01*
X87427000Y-129253000D01*
X88425608Y-129253000D01*
X88485518Y-129063649D01*
X88361989Y-128765400D01*
X88045953Y-128405778D01*
X87616352Y-128194472D01*
X87427000Y-128253829D01*
X87173000Y-128253829D01*
X86983648Y-128194472D01*
X86554047Y-128405778D01*
X86238011Y-128765400D01*
X86114482Y-129063649D01*
X85452000Y-129063649D01*
X85452000Y-126840000D01*
X86048962Y-126840000D01*
X86142362Y-127309553D01*
X86408342Y-127707620D01*
X86806409Y-127973600D01*
X87275962Y-128067000D01*
X87324038Y-128067000D01*
X87793591Y-127973600D01*
X88191658Y-127707620D01*
X88419253Y-127367000D01*
X90860000Y-127367000D01*
X91061675Y-127326885D01*
X91232645Y-127212645D01*
X91272646Y-127172645D01*
X91272648Y-127172642D01*
X92418290Y-126027000D01*
X100581710Y-126027000D01*
X100677865Y-126123155D01*
X100227299Y-126122762D01*
X99721011Y-126331956D01*
X99333317Y-126718974D01*
X99227836Y-126973000D01*
X95272164Y-126973000D01*
X95168044Y-126721011D01*
X94781026Y-126333317D01*
X94275104Y-126123240D01*
X93727299Y-126122762D01*
X93221011Y-126331956D01*
X92833317Y-126718974D01*
X92623240Y-127224896D01*
X92622762Y-127772701D01*
X92831956Y-128278989D01*
X93218974Y-128666683D01*
X93724896Y-128876760D01*
X94272701Y-128877238D01*
X94778989Y-128668044D01*
X95166683Y-128281026D01*
X95272164Y-128027000D01*
X99227710Y-128027000D01*
X98627355Y-128627355D01*
X98513115Y-128798325D01*
X98496521Y-128881750D01*
X98473000Y-129000000D01*
X98473000Y-129315615D01*
X98350000Y-129315615D01*
X98202902Y-129344875D01*
X98078199Y-129428199D01*
X97994875Y-129552902D01*
X97965615Y-129700000D01*
X97965615Y-130400000D01*
X97994875Y-130547098D01*
X98078199Y-130671801D01*
X98202902Y-130755125D01*
X98350000Y-130784385D01*
X99650000Y-130784385D01*
X99797098Y-130755125D01*
X99921801Y-130671801D01*
X100005125Y-130547098D01*
X100034385Y-130400000D01*
X100034385Y-129700000D01*
X100005125Y-129552902D01*
X99921801Y-129428199D01*
X99797098Y-129344875D01*
X99650000Y-129315615D01*
X99527000Y-129315615D01*
X99527000Y-129218290D01*
X99973090Y-128772201D01*
X100224896Y-128876760D01*
X100772701Y-128877238D01*
X101278989Y-128668044D01*
X101573000Y-128374546D01*
X101573000Y-129000000D01*
X101613115Y-129201675D01*
X101727355Y-129372645D01*
X102327355Y-129972645D01*
X102498325Y-130086885D01*
X102526794Y-130092548D01*
X102519875Y-130102902D01*
X102490615Y-130250000D01*
X102490615Y-131289095D01*
X102356710Y-131423000D01*
X99985145Y-131423000D01*
X99921801Y-131328199D01*
X99797098Y-131244875D01*
X99650000Y-131215615D01*
X98350000Y-131215615D01*
X98202902Y-131244875D01*
X98078199Y-131328199D01*
X97994875Y-131452902D01*
X97990877Y-131473000D01*
X97684385Y-131473000D01*
X97684385Y-131350000D01*
X97655125Y-131202902D01*
X97571801Y-131078199D01*
X97527000Y-131048264D01*
X97527000Y-131004014D01*
X97647098Y-130980125D01*
X97771801Y-130896801D01*
X97855125Y-130772098D01*
X97884385Y-130625000D01*
X97884385Y-129375000D01*
X97855125Y-129227902D01*
X97771801Y-129103199D01*
X97647098Y-129019875D01*
X97500000Y-128990615D01*
X96500000Y-128990615D01*
X96352902Y-129019875D01*
X96228199Y-129103199D01*
X96144875Y-129227902D01*
X96115615Y-129375000D01*
X96115615Y-130625000D01*
X96144875Y-130772098D01*
X96228199Y-130896801D01*
X96352902Y-130980125D01*
X96446972Y-130998837D01*
X96328199Y-131078199D01*
X96244875Y-131202902D01*
X96215615Y-131350000D01*
X96215615Y-132650000D01*
X96244875Y-132797098D01*
X96328199Y-132921801D01*
X96452902Y-133005125D01*
X96600000Y-133034385D01*
X97300000Y-133034385D01*
X97447098Y-133005125D01*
X97571801Y-132921801D01*
X97655125Y-132797098D01*
X97684385Y-132650000D01*
X97684385Y-132527000D01*
X98048264Y-132527000D01*
X98078199Y-132571801D01*
X98202902Y-132655125D01*
X98350000Y-132684385D01*
X99650000Y-132684385D01*
X99797098Y-132655125D01*
X99921801Y-132571801D01*
X99985145Y-132477000D01*
X102494165Y-132477000D01*
X101698165Y-133273000D01*
X98897919Y-133273000D01*
X98696245Y-133313115D01*
X98696243Y-133313116D01*
X98696244Y-133313116D01*
X98525273Y-133427355D01*
X98127355Y-133825274D01*
X98013115Y-133996244D01*
X97992144Y-134101674D01*
X97973000Y-134197919D01*
X97973000Y-134280747D01*
X97632380Y-134508342D01*
X97366400Y-134906409D01*
X97273000Y-135375962D01*
X97273000Y-135424038D01*
X97366400Y-135893591D01*
X97632380Y-136291658D01*
X98030447Y-136557638D01*
X98500000Y-136651038D01*
X98969553Y-136557638D01*
X99367620Y-136291658D01*
X99633600Y-135893591D01*
X99727000Y-135424038D01*
X99727000Y-135375962D01*
X99633600Y-134906409D01*
X99367620Y-134508342D01*
X99108204Y-134335006D01*
X99116210Y-134327000D01*
X99885591Y-134327000D01*
X99834875Y-134402902D01*
X99805615Y-134550000D01*
X99805615Y-136250000D01*
X99834875Y-136397098D01*
X99918199Y-136521801D01*
X100042902Y-136605125D01*
X100190000Y-136634385D01*
X101890000Y-136634385D01*
X102037098Y-136605125D01*
X102161801Y-136521801D01*
X102245125Y-136397098D01*
X102274385Y-136250000D01*
X102274385Y-136221250D01*
X103498000Y-136221250D01*
X103498000Y-136574990D01*
X103555395Y-136713553D01*
X103661447Y-136819605D01*
X103800010Y-136877000D01*
X104278750Y-136877000D01*
X104373000Y-136782750D01*
X104373000Y-136127000D01*
X104627000Y-136127000D01*
X104627000Y-136782750D01*
X104721250Y-136877000D01*
X105199990Y-136877000D01*
X105338553Y-136819605D01*
X105444605Y-136713553D01*
X105502000Y-136574990D01*
X105502000Y-136221250D01*
X105998000Y-136221250D01*
X105998000Y-136574990D01*
X106055395Y-136713553D01*
X106161447Y-136819605D01*
X106300010Y-136877000D01*
X106778750Y-136877000D01*
X106873000Y-136782750D01*
X106873000Y-136127000D01*
X107127000Y-136127000D01*
X107127000Y-136782750D01*
X107221250Y-136877000D01*
X107699990Y-136877000D01*
X107838553Y-136819605D01*
X107944605Y-136713553D01*
X108000000Y-136579818D01*
X108055395Y-136713553D01*
X108161447Y-136819605D01*
X108300010Y-136877000D01*
X108778750Y-136877000D01*
X108873000Y-136782750D01*
X108873000Y-136127000D01*
X108092250Y-136127000D01*
X108000000Y-136219250D01*
X107907750Y-136127000D01*
X107127000Y-136127000D01*
X106873000Y-136127000D01*
X106092250Y-136127000D01*
X105998000Y-136221250D01*
X105502000Y-136221250D01*
X105407750Y-136127000D01*
X104627000Y-136127000D01*
X104373000Y-136127000D01*
X103592250Y-136127000D01*
X103498000Y-136221250D01*
X102274385Y-136221250D01*
X102274385Y-135425010D01*
X103498000Y-135425010D01*
X103498000Y-135778750D01*
X103592250Y-135873000D01*
X104373000Y-135873000D01*
X104373000Y-135217250D01*
X104627000Y-135217250D01*
X104627000Y-135873000D01*
X105407750Y-135873000D01*
X105502000Y-135778750D01*
X105502000Y-135425010D01*
X105998000Y-135425010D01*
X105998000Y-135778750D01*
X106092250Y-135873000D01*
X106873000Y-135873000D01*
X106873000Y-135217250D01*
X107127000Y-135217250D01*
X107127000Y-135873000D01*
X107907750Y-135873000D01*
X108000000Y-135780750D01*
X108092250Y-135873000D01*
X108873000Y-135873000D01*
X108873000Y-135217250D01*
X108778750Y-135123000D01*
X108300010Y-135123000D01*
X108161447Y-135180395D01*
X108055395Y-135286447D01*
X108000000Y-135420182D01*
X107944605Y-135286447D01*
X107838553Y-135180395D01*
X107699990Y-135123000D01*
X107221250Y-135123000D01*
X107127000Y-135217250D01*
X106873000Y-135217250D01*
X106778750Y-135123000D01*
X106300010Y-135123000D01*
X106161447Y-135180395D01*
X106055395Y-135286447D01*
X105998000Y-135425010D01*
X105502000Y-135425010D01*
X105444605Y-135286447D01*
X105338553Y-135180395D01*
X105199990Y-135123000D01*
X104721250Y-135123000D01*
X104627000Y-135217250D01*
X104373000Y-135217250D01*
X104278750Y-135123000D01*
X103800010Y-135123000D01*
X103661447Y-135180395D01*
X103555395Y-135286447D01*
X103498000Y-135425010D01*
X102274385Y-135425010D01*
X102274385Y-135070905D01*
X103490615Y-133854675D01*
X103490615Y-134500000D01*
X103519875Y-134647098D01*
X103603199Y-134771801D01*
X103727902Y-134855125D01*
X103875000Y-134884385D01*
X105125000Y-134884385D01*
X105272098Y-134855125D01*
X105396801Y-134771801D01*
X105480125Y-134647098D01*
X105509385Y-134500000D01*
X105509385Y-133500000D01*
X105480125Y-133352902D01*
X105396801Y-133228199D01*
X105289073Y-133156217D01*
X105397645Y-133047645D01*
X105511885Y-132876675D01*
X105552000Y-132675000D01*
X105552000Y-132034385D01*
X105875000Y-132034385D01*
X106000000Y-132009521D01*
X106125000Y-132034385D01*
X106525000Y-132034385D01*
X106655277Y-132008471D01*
X106700010Y-132027000D01*
X106780750Y-132027000D01*
X106875000Y-131932750D01*
X106875000Y-131804768D01*
X106880125Y-131797098D01*
X106909385Y-131650000D01*
X106909385Y-130275533D01*
X107040615Y-130275533D01*
X107040615Y-131650000D01*
X107069875Y-131797098D01*
X107075000Y-131804768D01*
X107075000Y-131932750D01*
X107098000Y-131955750D01*
X107098000Y-132356709D01*
X106627355Y-132827355D01*
X106513115Y-132998325D01*
X106509953Y-133014222D01*
X106489785Y-133115615D01*
X106375000Y-133115615D01*
X106227902Y-133144875D01*
X106103199Y-133228199D01*
X106019875Y-133352902D01*
X105990615Y-133500000D01*
X105990615Y-134500000D01*
X106019875Y-134647098D01*
X106103199Y-134771801D01*
X106227902Y-134855125D01*
X106375000Y-134884385D01*
X107625000Y-134884385D01*
X107772098Y-134855125D01*
X107896801Y-134771801D01*
X107980125Y-134647098D01*
X108000000Y-134547181D01*
X108019875Y-134647098D01*
X108103199Y-134771801D01*
X108227902Y-134855125D01*
X108375000Y-134884385D01*
X109264094Y-134884385D01*
X109502709Y-135123000D01*
X109221250Y-135123000D01*
X109127000Y-135217250D01*
X109127000Y-135873000D01*
X109907750Y-135873000D01*
X109965615Y-135815135D01*
X109965615Y-136184865D01*
X109907750Y-136127000D01*
X109127000Y-136127000D01*
X109127000Y-136782750D01*
X109221250Y-136877000D01*
X109699990Y-136877000D01*
X109838553Y-136819605D01*
X109944605Y-136713553D01*
X110002000Y-136574990D01*
X110002000Y-136457761D01*
X110078199Y-136571801D01*
X110202902Y-136655125D01*
X110350000Y-136684385D01*
X111289095Y-136684385D01*
X111977710Y-137373000D01*
X93893291Y-137373000D01*
X93572647Y-137052357D01*
X93572645Y-137052354D01*
X93318978Y-136798687D01*
X93321801Y-136796801D01*
X93405125Y-136672098D01*
X93434385Y-136525000D01*
X93434385Y-135716352D01*
X94774472Y-135716352D01*
X94985778Y-136145953D01*
X95345400Y-136461989D01*
X95643649Y-136585518D01*
X95833000Y-136525608D01*
X95833000Y-135527000D01*
X96087000Y-135527000D01*
X96087000Y-136525608D01*
X96276351Y-136585518D01*
X96574600Y-136461989D01*
X96934222Y-136145953D01*
X97145528Y-135716352D01*
X97086171Y-135527000D01*
X96087000Y-135527000D01*
X95833000Y-135527000D01*
X94833829Y-135527000D01*
X94774472Y-135716352D01*
X93434385Y-135716352D01*
X93434385Y-135275000D01*
X93405125Y-135127902D01*
X93375556Y-135083648D01*
X94774472Y-135083648D01*
X94833829Y-135273000D01*
X95833000Y-135273000D01*
X95833000Y-134274392D01*
X96087000Y-134274392D01*
X96087000Y-135273000D01*
X97086171Y-135273000D01*
X97145528Y-135083648D01*
X96934222Y-134654047D01*
X96574600Y-134338011D01*
X96276351Y-134214482D01*
X96087000Y-134274392D01*
X95833000Y-134274392D01*
X95643649Y-134214482D01*
X95345400Y-134338011D01*
X94985778Y-134654047D01*
X94774472Y-135083648D01*
X93375556Y-135083648D01*
X93321801Y-135003199D01*
X93197098Y-134919875D01*
X93077000Y-134895986D01*
X93077000Y-134815032D01*
X93096801Y-134801801D01*
X93180125Y-134677098D01*
X93209385Y-134530000D01*
X93209385Y-133830905D01*
X94328005Y-132712286D01*
X94344875Y-132797098D01*
X94428199Y-132921801D01*
X94552902Y-133005125D01*
X94700000Y-133034385D01*
X95400000Y-133034385D01*
X95547098Y-133005125D01*
X95671801Y-132921801D01*
X95755125Y-132797098D01*
X95784385Y-132650000D01*
X95784385Y-131350000D01*
X95755125Y-131202902D01*
X95671801Y-131078199D01*
X95557761Y-131002000D01*
X95574990Y-131002000D01*
X95713553Y-130944605D01*
X95819605Y-130838553D01*
X95877000Y-130699990D01*
X95877000Y-130221250D01*
X95782750Y-130127000D01*
X95127000Y-130127000D01*
X95127000Y-130907750D01*
X95184865Y-130965615D01*
X94815135Y-130965615D01*
X94873000Y-130907750D01*
X94873000Y-130127000D01*
X94217250Y-130127000D01*
X94123000Y-130221250D01*
X94123000Y-130699990D01*
X94180395Y-130838553D01*
X94286447Y-130944605D01*
X94425010Y-131002000D01*
X94542239Y-131002000D01*
X94428199Y-131078199D01*
X94344875Y-131202902D01*
X94315615Y-131350000D01*
X94315615Y-131473000D01*
X94295000Y-131473000D01*
X94093326Y-131513115D01*
X94040631Y-131548325D01*
X93922354Y-131627355D01*
X93206821Y-132342888D01*
X93209385Y-132330000D01*
X93209385Y-131270000D01*
X93180125Y-131122902D01*
X93096801Y-130998199D01*
X92972098Y-130914875D01*
X92907372Y-130902000D01*
X93124990Y-130902000D01*
X93263553Y-130844605D01*
X93369605Y-130738553D01*
X93427000Y-130599990D01*
X93427000Y-130121250D01*
X93332750Y-130027000D01*
X92677000Y-130027000D01*
X92677000Y-130807750D01*
X92754865Y-130885615D01*
X92345135Y-130885615D01*
X92423000Y-130807750D01*
X92423000Y-130027000D01*
X91767250Y-130027000D01*
X91673000Y-130121250D01*
X91673000Y-130599990D01*
X91730395Y-130738553D01*
X91836447Y-130844605D01*
X91975010Y-130902000D01*
X92092628Y-130902000D01*
X92027902Y-130914875D01*
X92018296Y-130921293D01*
X91949990Y-130893000D01*
X91771250Y-130893000D01*
X91677000Y-130987250D01*
X91677000Y-131673000D01*
X91790615Y-131673000D01*
X91790615Y-131927000D01*
X91677000Y-131927000D01*
X91677000Y-132373000D01*
X91423000Y-132373000D01*
X91423000Y-131927000D01*
X91309385Y-131927000D01*
X91309385Y-131673000D01*
X91423000Y-131673000D01*
X91423000Y-130987250D01*
X91328750Y-130893000D01*
X91150010Y-130893000D01*
X91081704Y-130921293D01*
X91077000Y-130918150D01*
X91077000Y-130904014D01*
X91197098Y-130880125D01*
X91321801Y-130796801D01*
X91405125Y-130672098D01*
X91434385Y-130525000D01*
X91434385Y-129275000D01*
X91419469Y-129200010D01*
X91673000Y-129200010D01*
X91673000Y-129678750D01*
X91767250Y-129773000D01*
X92423000Y-129773000D01*
X92423000Y-128992250D01*
X92677000Y-128992250D01*
X92677000Y-129773000D01*
X93332750Y-129773000D01*
X93427000Y-129678750D01*
X93427000Y-129300010D01*
X94123000Y-129300010D01*
X94123000Y-129778750D01*
X94217250Y-129873000D01*
X94873000Y-129873000D01*
X94873000Y-129092250D01*
X95127000Y-129092250D01*
X95127000Y-129873000D01*
X95782750Y-129873000D01*
X95877000Y-129778750D01*
X95877000Y-129300010D01*
X95819605Y-129161447D01*
X95713553Y-129055395D01*
X95574990Y-128998000D01*
X95221250Y-128998000D01*
X95127000Y-129092250D01*
X94873000Y-129092250D01*
X94778750Y-128998000D01*
X94425010Y-128998000D01*
X94286447Y-129055395D01*
X94180395Y-129161447D01*
X94123000Y-129300010D01*
X93427000Y-129300010D01*
X93427000Y-129200010D01*
X93369605Y-129061447D01*
X93263553Y-128955395D01*
X93124990Y-128898000D01*
X92771250Y-128898000D01*
X92677000Y-128992250D01*
X92423000Y-128992250D01*
X92328750Y-128898000D01*
X91975010Y-128898000D01*
X91836447Y-128955395D01*
X91730395Y-129061447D01*
X91673000Y-129200010D01*
X91419469Y-129200010D01*
X91405125Y-129127902D01*
X91321801Y-129003199D01*
X91197098Y-128919875D01*
X91050000Y-128890615D01*
X90050000Y-128890615D01*
X89902902Y-128919875D01*
X89778199Y-129003199D01*
X89694875Y-129127902D01*
X89665615Y-129275000D01*
X89665615Y-130525000D01*
X89694875Y-130672098D01*
X89778199Y-130796801D01*
X89902902Y-130880125D01*
X90023000Y-130904014D01*
X90023000Y-130984968D01*
X90003199Y-130998199D01*
X89919875Y-131122902D01*
X89890615Y-131270000D01*
X89890615Y-131273000D01*
X88660000Y-131273000D01*
X88458326Y-131313115D01*
X88403124Y-131350000D01*
X88287354Y-131427355D01*
X87705777Y-132008933D01*
X87324038Y-131933000D01*
X87275962Y-131933000D01*
X86806409Y-132026400D01*
X86408342Y-132292380D01*
X86142362Y-132690447D01*
X86048962Y-133160000D01*
X86142362Y-133629553D01*
X86408342Y-134027620D01*
X86806409Y-134293600D01*
X87275962Y-134387000D01*
X87324038Y-134387000D01*
X87793591Y-134293600D01*
X88191658Y-134027620D01*
X88457638Y-133629553D01*
X88551038Y-133160000D01*
X88467129Y-132738162D01*
X88878291Y-132327000D01*
X89890615Y-132327000D01*
X89890615Y-132330000D01*
X89919875Y-132477098D01*
X90003199Y-132601801D01*
X90077230Y-132651267D01*
X90113115Y-132831675D01*
X90227355Y-133002645D01*
X90310325Y-133085615D01*
X90275000Y-133085615D01*
X90127902Y-133114875D01*
X90003199Y-133198199D01*
X89919875Y-133322902D01*
X89890615Y-133470000D01*
X89890615Y-134530000D01*
X89919875Y-134677098D01*
X90003199Y-134801801D01*
X90127902Y-134885125D01*
X90192628Y-134898000D01*
X89975010Y-134898000D01*
X89836447Y-134955395D01*
X89730395Y-135061447D01*
X89673000Y-135200010D01*
X89673000Y-135678750D01*
X89767250Y-135773000D01*
X90423000Y-135773000D01*
X90423000Y-134992250D01*
X90345135Y-134914385D01*
X90754865Y-134914385D01*
X90677000Y-134992250D01*
X90677000Y-135773000D01*
X91332750Y-135773000D01*
X91427000Y-135678750D01*
X91427000Y-135200010D01*
X91369605Y-135061447D01*
X91263553Y-134955395D01*
X91124990Y-134898000D01*
X91007372Y-134898000D01*
X91072098Y-134885125D01*
X91196801Y-134801801D01*
X91280125Y-134677098D01*
X91309385Y-134530000D01*
X91309385Y-133470000D01*
X91300832Y-133427000D01*
X91799168Y-133427000D01*
X91790615Y-133470000D01*
X91790615Y-134530000D01*
X91819875Y-134677098D01*
X91903199Y-134801801D01*
X92023000Y-134881850D01*
X92023000Y-134895986D01*
X91902902Y-134919875D01*
X91778199Y-135003199D01*
X91694875Y-135127902D01*
X91665615Y-135275000D01*
X91665615Y-136525000D01*
X91694875Y-136672098D01*
X91778199Y-136796801D01*
X91902902Y-136880125D01*
X92008015Y-136901033D01*
X92013115Y-136926675D01*
X92127355Y-137097645D01*
X92827354Y-137797645D01*
X92827357Y-137797647D01*
X93302354Y-138272645D01*
X93416594Y-138348978D01*
X93473326Y-138386885D01*
X93675000Y-138427000D01*
X117210002Y-138427000D01*
X117411677Y-138386885D01*
X117582647Y-138272645D01*
X118572646Y-137282647D01*
X118686885Y-137111676D01*
X118727000Y-136910002D01*
X118727000Y-134200000D01*
X118720564Y-134167645D01*
X118686885Y-133998325D01*
X118572645Y-133827355D01*
X118272645Y-133527355D01*
X118101675Y-133413115D01*
X117984385Y-133389785D01*
X117984385Y-133300000D01*
X117955125Y-133152902D01*
X117871801Y-133028199D01*
X117747098Y-132944875D01*
X117600000Y-132915615D01*
X116400000Y-132915615D01*
X116252902Y-132944875D01*
X116128199Y-133028199D01*
X116044875Y-133152902D01*
X116015615Y-133300000D01*
X116015615Y-133373000D01*
X115984385Y-133373000D01*
X115984385Y-133300000D01*
X115955125Y-133152902D01*
X115871801Y-133028199D01*
X115747098Y-132944875D01*
X115600000Y-132915615D01*
X115510215Y-132915615D01*
X115486885Y-132798326D01*
X115472418Y-132776675D01*
X115372646Y-132627355D01*
X115101642Y-132356351D01*
X119814482Y-132356351D01*
X119938011Y-132654600D01*
X120254047Y-133014222D01*
X120683648Y-133225528D01*
X120873000Y-133166171D01*
X120873000Y-132167000D01*
X121127000Y-132167000D01*
X121127000Y-133166171D01*
X121316352Y-133225528D01*
X121745953Y-133014222D01*
X122061989Y-132654600D01*
X122185518Y-132356351D01*
X122125608Y-132167000D01*
X121127000Y-132167000D01*
X120873000Y-132167000D01*
X119874392Y-132167000D01*
X119814482Y-132356351D01*
X115101642Y-132356351D01*
X114468940Y-131723649D01*
X119814482Y-131723649D01*
X119874392Y-131913000D01*
X120873000Y-131913000D01*
X120873000Y-130913829D01*
X121127000Y-130913829D01*
X121127000Y-131913000D01*
X122125608Y-131913000D01*
X122185518Y-131723649D01*
X122061989Y-131425400D01*
X121745953Y-131065778D01*
X121316352Y-130854472D01*
X121127000Y-130913829D01*
X120873000Y-130913829D01*
X120683648Y-130854472D01*
X120254047Y-131065778D01*
X119938011Y-131425400D01*
X119814482Y-131723649D01*
X114468940Y-131723649D01*
X114150290Y-131405000D01*
X114872645Y-130682645D01*
X114986885Y-130511675D01*
X115027000Y-130310000D01*
X115027000Y-130181750D01*
X116348000Y-130181750D01*
X116348000Y-130274990D01*
X116405395Y-130413553D01*
X116511447Y-130519605D01*
X116650010Y-130577000D01*
X117228750Y-130577000D01*
X117323000Y-130482750D01*
X117323000Y-130087500D01*
X117577000Y-130087500D01*
X117577000Y-130482750D01*
X117671250Y-130577000D01*
X118249990Y-130577000D01*
X118388553Y-130519605D01*
X118494605Y-130413553D01*
X118552000Y-130274990D01*
X118552000Y-130181750D01*
X118457750Y-130087500D01*
X117577000Y-130087500D01*
X117323000Y-130087500D01*
X116442250Y-130087500D01*
X116348000Y-130181750D01*
X115027000Y-130181750D01*
X115027000Y-129531750D01*
X116348000Y-129531750D01*
X116348000Y-129624990D01*
X116358360Y-129650000D01*
X116348000Y-129675010D01*
X116348000Y-129768250D01*
X116442250Y-129862500D01*
X116504342Y-129862500D01*
X116511447Y-129869605D01*
X116650010Y-129927000D01*
X117228750Y-129927000D01*
X117293250Y-129862500D01*
X117323000Y-129862500D01*
X117323000Y-129437500D01*
X117577000Y-129437500D01*
X117577000Y-129862500D01*
X117606750Y-129862500D01*
X117671250Y-129927000D01*
X118249990Y-129927000D01*
X118388553Y-129869605D01*
X118395658Y-129862500D01*
X118457750Y-129862500D01*
X118552000Y-129768250D01*
X118552000Y-129675010D01*
X118541640Y-129650000D01*
X118552000Y-129624990D01*
X118552000Y-129531750D01*
X118457750Y-129437500D01*
X118395658Y-129437500D01*
X118388553Y-129430395D01*
X118249990Y-129373000D01*
X117671250Y-129373000D01*
X117606750Y-129437500D01*
X117577000Y-129437500D01*
X117323000Y-129437500D01*
X117293250Y-129437500D01*
X117228750Y-129373000D01*
X116650010Y-129373000D01*
X116511447Y-129430395D01*
X116504342Y-129437500D01*
X116442250Y-129437500D01*
X116348000Y-129531750D01*
X115027000Y-129531750D01*
X115027000Y-128881750D01*
X116348000Y-128881750D01*
X116348000Y-128974990D01*
X116358360Y-129000000D01*
X116348000Y-129025010D01*
X116348000Y-129118250D01*
X116442250Y-129212500D01*
X116504342Y-129212500D01*
X116511447Y-129219605D01*
X116650010Y-129277000D01*
X117228750Y-129277000D01*
X117293250Y-129212500D01*
X117323000Y-129212500D01*
X117323000Y-128787500D01*
X117577000Y-128787500D01*
X117577000Y-129212500D01*
X117606750Y-129212500D01*
X117671250Y-129277000D01*
X118249990Y-129277000D01*
X118388553Y-129219605D01*
X118395658Y-129212500D01*
X118457750Y-129212500D01*
X118552000Y-129118250D01*
X118552000Y-129025010D01*
X118541640Y-129000000D01*
X118552000Y-128974990D01*
X118552000Y-128881750D01*
X118457750Y-128787500D01*
X118395658Y-128787500D01*
X118388553Y-128780395D01*
X118249990Y-128723000D01*
X117671250Y-128723000D01*
X117606750Y-128787500D01*
X117577000Y-128787500D01*
X117323000Y-128787500D01*
X117293250Y-128787500D01*
X117228750Y-128723000D01*
X116650010Y-128723000D01*
X116511447Y-128780395D01*
X116504342Y-128787500D01*
X116442250Y-128787500D01*
X116348000Y-128881750D01*
X115027000Y-128881750D01*
X115027000Y-128400000D01*
X115007686Y-128302902D01*
X114993534Y-128231750D01*
X116348000Y-128231750D01*
X116348000Y-128324990D01*
X116358360Y-128350000D01*
X116348000Y-128375010D01*
X116348000Y-128468250D01*
X116442250Y-128562500D01*
X116504342Y-128562500D01*
X116511447Y-128569605D01*
X116650010Y-128627000D01*
X117228750Y-128627000D01*
X117293250Y-128562500D01*
X117323000Y-128562500D01*
X117323000Y-128137500D01*
X117577000Y-128137500D01*
X117577000Y-128562500D01*
X117606750Y-128562500D01*
X117671250Y-128627000D01*
X118249990Y-128627000D01*
X118388553Y-128569605D01*
X118395658Y-128562500D01*
X118457750Y-128562500D01*
X118552000Y-128468250D01*
X118552000Y-128375010D01*
X118541640Y-128350000D01*
X118552000Y-128324990D01*
X118552000Y-128231750D01*
X118457750Y-128137500D01*
X118395658Y-128137500D01*
X118388553Y-128130395D01*
X118249990Y-128073000D01*
X117671250Y-128073000D01*
X117606750Y-128137500D01*
X117577000Y-128137500D01*
X117323000Y-128137500D01*
X117293250Y-128137500D01*
X117228750Y-128073000D01*
X116650010Y-128073000D01*
X116511447Y-128130395D01*
X116504342Y-128137500D01*
X116442250Y-128137500D01*
X116348000Y-128231750D01*
X114993534Y-128231750D01*
X114986885Y-128198325D01*
X114872645Y-128027355D01*
X114570300Y-127725010D01*
X116348000Y-127725010D01*
X116348000Y-127818250D01*
X116442250Y-127912500D01*
X117323000Y-127912500D01*
X117323000Y-127517250D01*
X117577000Y-127517250D01*
X117577000Y-127912500D01*
X118457750Y-127912500D01*
X118552000Y-127818250D01*
X118552000Y-127725010D01*
X118494605Y-127586447D01*
X118388553Y-127480395D01*
X118249990Y-127423000D01*
X117671250Y-127423000D01*
X117577000Y-127517250D01*
X117323000Y-127517250D01*
X117228750Y-127423000D01*
X116650010Y-127423000D01*
X116511447Y-127480395D01*
X116405395Y-127586447D01*
X116348000Y-127725010D01*
X114570300Y-127725010D01*
X113477000Y-126631710D01*
X113477000Y-125985145D01*
X113571801Y-125921801D01*
X113582591Y-125905652D01*
X113627355Y-125972645D01*
X114227355Y-126572645D01*
X114398325Y-126686885D01*
X114600000Y-126727000D01*
X116700000Y-126727000D01*
X116901675Y-126686885D01*
X117072645Y-126572645D01*
X117322645Y-126322646D01*
X117436884Y-126151675D01*
X117436885Y-126151674D01*
X117468938Y-125990532D01*
X117571801Y-125921801D01*
X117655125Y-125797098D01*
X117684385Y-125650000D01*
X117684385Y-125527000D01*
X119971710Y-125527000D01*
X120170325Y-125725615D01*
X120150000Y-125725615D01*
X120002902Y-125754875D01*
X119878199Y-125838199D01*
X119794875Y-125962902D01*
X119765615Y-126110000D01*
X119765615Y-127810000D01*
X119794875Y-127957098D01*
X119878199Y-128081801D01*
X120002902Y-128165125D01*
X120150000Y-128194385D01*
X121850000Y-128194385D01*
X121997098Y-128165125D01*
X122073000Y-128114409D01*
X122073000Y-128381710D01*
X121850099Y-128604611D01*
X121493591Y-128366400D01*
X121024038Y-128273000D01*
X120975962Y-128273000D01*
X120506409Y-128366400D01*
X120108342Y-128632380D01*
X119842362Y-129030447D01*
X119748962Y-129500000D01*
X119842362Y-129969553D01*
X120108342Y-130367620D01*
X120506409Y-130633600D01*
X120975962Y-130727000D01*
X121024038Y-130727000D01*
X121493591Y-130633600D01*
X121891658Y-130367620D01*
X122157638Y-129969553D01*
X122202805Y-129742485D01*
X122972645Y-128972645D01*
X123086885Y-128801675D01*
X123102534Y-128723000D01*
X123127000Y-128600000D01*
X123127000Y-126049998D01*
X123086885Y-125848324D01*
X123086885Y-125848323D01*
X122972645Y-125677353D01*
X121222647Y-123927355D01*
X121051677Y-123813115D01*
X120850002Y-123773000D01*
X118527000Y-123773000D01*
X118527000Y-123400000D01*
X118486885Y-123198326D01*
X118403362Y-123073326D01*
X118372645Y-123027354D01*
X117972645Y-122627355D01*
X117801675Y-122513115D01*
X117684385Y-122489785D01*
X117684385Y-122350000D01*
X117655125Y-122202902D01*
X117571801Y-122078199D01*
X117447098Y-121994875D01*
X117300000Y-121965615D01*
X116600000Y-121965615D01*
X116523199Y-121980892D01*
X116486885Y-121798325D01*
X116372645Y-121627355D01*
X114972645Y-120227355D01*
X114801675Y-120113115D01*
X114600000Y-120073000D01*
X109000000Y-120073000D01*
X108831785Y-120106460D01*
X108798325Y-120113115D01*
X108627355Y-120227355D01*
X105952355Y-122902355D01*
X105838115Y-123073325D01*
X105838115Y-123073326D01*
X105798000Y-123275000D01*
X105798000Y-123965615D01*
X105475000Y-123965615D01*
X105350000Y-123990479D01*
X105225000Y-123965615D01*
X104902000Y-123965615D01*
X104902000Y-121275000D01*
X104861885Y-121073326D01*
X104747645Y-120902355D01*
X104172645Y-120327355D01*
X104001675Y-120213115D01*
X103800000Y-120173000D01*
X92700000Y-120173000D01*
X92531785Y-120206460D01*
X92498325Y-120213115D01*
X92327355Y-120327355D01*
X91127355Y-121527355D01*
X91013115Y-121698325D01*
X91010173Y-121713115D01*
X90973000Y-121900000D01*
X90973000Y-123381709D01*
X90581710Y-123773000D01*
X88534385Y-123773000D01*
X88534385Y-123450000D01*
X88505125Y-123302902D01*
X88421801Y-123178199D01*
X88297098Y-123094875D01*
X88150000Y-123065615D01*
X86450000Y-123065615D01*
X86302902Y-123094875D01*
X86178199Y-123178199D01*
X86094875Y-123302902D01*
X86065615Y-123450000D01*
X86065615Y-125150000D01*
X86094875Y-125297098D01*
X86178199Y-125421801D01*
X86302902Y-125505125D01*
X86450000Y-125534385D01*
X88150000Y-125534385D01*
X88297098Y-125505125D01*
X88421801Y-125421801D01*
X88505125Y-125297098D01*
X88534385Y-125150000D01*
X88534385Y-124827000D01*
X90800000Y-124827000D01*
X91001675Y-124786885D01*
X91172645Y-124672645D01*
X91833735Y-124011555D01*
X93168050Y-124011555D01*
X93280891Y-124205833D01*
X93797082Y-124389235D01*
X94344166Y-124361140D01*
X94719109Y-124205833D01*
X94831950Y-124011555D01*
X99668050Y-124011555D01*
X99780891Y-124205833D01*
X100297082Y-124389235D01*
X100844166Y-124361140D01*
X101219109Y-124205833D01*
X101331950Y-124011555D01*
X100500000Y-123179605D01*
X99668050Y-124011555D01*
X94831950Y-124011555D01*
X94000000Y-123179605D01*
X93168050Y-124011555D01*
X91833735Y-124011555D01*
X91872645Y-123972646D01*
X91986884Y-123801675D01*
X91986885Y-123801674D01*
X92027000Y-123600000D01*
X92027000Y-122797082D01*
X92610765Y-122797082D01*
X92638860Y-123344166D01*
X92794167Y-123719109D01*
X92988445Y-123831950D01*
X93820395Y-123000000D01*
X94179605Y-123000000D01*
X95011555Y-123831950D01*
X95205833Y-123719109D01*
X95389235Y-123202918D01*
X95368394Y-122797082D01*
X99110765Y-122797082D01*
X99138860Y-123344166D01*
X99294167Y-123719109D01*
X99488445Y-123831950D01*
X100320395Y-123000000D01*
X100679605Y-123000000D01*
X101511555Y-123831950D01*
X101705833Y-123719109D01*
X101889235Y-123202918D01*
X101861140Y-122655834D01*
X101705833Y-122280891D01*
X101511555Y-122168050D01*
X100679605Y-123000000D01*
X100320395Y-123000000D01*
X99488445Y-122168050D01*
X99294167Y-122280891D01*
X99110765Y-122797082D01*
X95368394Y-122797082D01*
X95361140Y-122655834D01*
X95205833Y-122280891D01*
X95011555Y-122168050D01*
X94179605Y-123000000D01*
X93820395Y-123000000D01*
X92988445Y-122168050D01*
X92794167Y-122280891D01*
X92610765Y-122797082D01*
X92027000Y-122797082D01*
X92027000Y-122118290D01*
X92156845Y-121988445D01*
X93168050Y-121988445D01*
X94000000Y-122820395D01*
X94831950Y-121988445D01*
X99668050Y-121988445D01*
X100500000Y-122820395D01*
X101331950Y-121988445D01*
X101219109Y-121794167D01*
X100702918Y-121610765D01*
X100155834Y-121638860D01*
X99780891Y-121794167D01*
X99668050Y-121988445D01*
X94831950Y-121988445D01*
X94719109Y-121794167D01*
X94202918Y-121610765D01*
X93655834Y-121638860D01*
X93280891Y-121794167D01*
X93168050Y-121988445D01*
X92156845Y-121988445D01*
X92918290Y-121227000D01*
X103581710Y-121227000D01*
X103848000Y-121493290D01*
X103848000Y-123965615D01*
X103525000Y-123965615D01*
X103400000Y-123990479D01*
X103275000Y-123965615D01*
X102875000Y-123965615D01*
X102727902Y-123994875D01*
X102603199Y-124078199D01*
X102519875Y-124202902D01*
X102490615Y-124350000D01*
X102490615Y-125750000D01*
X102519875Y-125897098D01*
X102603199Y-126021801D01*
X102727902Y-126105125D01*
X102875000Y-126134385D01*
X103275000Y-126134385D01*
X103400000Y-126109521D01*
X103525000Y-126134385D01*
X103925000Y-126134385D01*
X104050000Y-126109521D01*
X104175000Y-126134385D01*
X104575000Y-126134385D01*
X104700000Y-126109521D01*
X104825000Y-126134385D01*
X105225000Y-126134385D01*
X105350000Y-126109521D01*
X105475000Y-126134385D01*
X105875000Y-126134385D01*
X106000000Y-126109521D01*
X106125000Y-126134385D01*
X106525000Y-126134385D01*
X106650000Y-126109521D01*
X106775000Y-126134385D01*
X107175000Y-126134385D01*
X107300000Y-126109521D01*
X107425000Y-126134385D01*
X107748000Y-126134385D01*
X107748000Y-126425000D01*
X107788115Y-126626675D01*
X107902355Y-126797645D01*
X110152355Y-129047645D01*
X110323325Y-129161885D01*
X110356785Y-129168540D01*
X110525000Y-129202000D01*
X110531750Y-129202000D01*
X110542250Y-129212500D01*
X110614109Y-129212500D01*
X110677902Y-129255125D01*
X110825000Y-129284385D01*
X112275000Y-129284385D01*
X112422098Y-129255125D01*
X112485891Y-129212500D01*
X112557750Y-129212500D01*
X112652000Y-129118250D01*
X112652000Y-129025010D01*
X112640190Y-128996498D01*
X112659385Y-128900000D01*
X112659385Y-128450000D01*
X112639493Y-128350000D01*
X112659385Y-128250000D01*
X112659385Y-127800000D01*
X112630125Y-127652902D01*
X112546801Y-127528199D01*
X112422098Y-127444875D01*
X112275000Y-127415615D01*
X112077000Y-127415615D01*
X112077000Y-126850000D01*
X112036885Y-126648326D01*
X111922645Y-126477355D01*
X111577000Y-126131710D01*
X111577000Y-125985145D01*
X111671801Y-125921801D01*
X111755125Y-125797098D01*
X111784385Y-125650000D01*
X111784385Y-124350000D01*
X111755125Y-124202902D01*
X111671801Y-124078199D01*
X111554768Y-124000000D01*
X111671801Y-123921801D01*
X111755125Y-123797098D01*
X111784385Y-123650000D01*
X111784385Y-122352022D01*
X112215615Y-122352022D01*
X112215615Y-123650000D01*
X112244875Y-123797098D01*
X112328199Y-123921801D01*
X112423000Y-123985145D01*
X112423000Y-124014855D01*
X112328199Y-124078199D01*
X112244875Y-124202902D01*
X112215615Y-124350000D01*
X112215615Y-125650000D01*
X112244875Y-125797098D01*
X112328199Y-125921801D01*
X112423000Y-125985145D01*
X112423000Y-126850000D01*
X112463115Y-127051675D01*
X112577355Y-127222645D01*
X113973000Y-128618290D01*
X113973000Y-130091710D01*
X113186710Y-130878000D01*
X112077000Y-130878000D01*
X112077000Y-130584385D01*
X112275000Y-130584385D01*
X112422098Y-130555125D01*
X112546801Y-130471801D01*
X112630125Y-130347098D01*
X112659385Y-130200000D01*
X112659385Y-129750000D01*
X112640190Y-129653502D01*
X112652000Y-129624990D01*
X112652000Y-129531750D01*
X112557750Y-129437500D01*
X112485891Y-129437500D01*
X112422098Y-129394875D01*
X112275000Y-129365615D01*
X110825000Y-129365615D01*
X110677902Y-129394875D01*
X110614109Y-129437500D01*
X110542250Y-129437500D01*
X110448000Y-129531750D01*
X110448000Y-129624990D01*
X110459810Y-129653502D01*
X110440615Y-129750000D01*
X110440615Y-130200000D01*
X110469875Y-130347098D01*
X110553199Y-130471801D01*
X110677902Y-130555125D01*
X110825000Y-130584385D01*
X111023000Y-130584385D01*
X111023000Y-131155000D01*
X111063115Y-131356675D01*
X111177355Y-131527645D01*
X111427354Y-131777645D01*
X111539166Y-131852355D01*
X111598326Y-131891885D01*
X111800000Y-131932000D01*
X113186710Y-131932000D01*
X114220940Y-132966231D01*
X114128199Y-133028199D01*
X114044875Y-133152902D01*
X114015615Y-133300000D01*
X114015615Y-133605638D01*
X114005125Y-133552902D01*
X113921801Y-133428199D01*
X113797098Y-133344875D01*
X113650000Y-133315615D01*
X112710905Y-133315615D01*
X110427000Y-131031710D01*
X110427000Y-130214998D01*
X110386885Y-130013324D01*
X110272645Y-129842353D01*
X109806182Y-129375888D01*
X109635211Y-129261648D01*
X109433537Y-129221533D01*
X106526467Y-129221533D01*
X106324793Y-129261648D01*
X106290765Y-129284385D01*
X106153821Y-129375888D01*
X105952355Y-129577355D01*
X105838115Y-129748325D01*
X105814785Y-129865615D01*
X105552000Y-129865615D01*
X105552000Y-129825000D01*
X105532728Y-129728113D01*
X105511885Y-129623325D01*
X105397645Y-129452355D01*
X105172645Y-129227355D01*
X105001675Y-129113115D01*
X104800000Y-129073000D01*
X102918290Y-129073000D01*
X102627000Y-128781710D01*
X102627000Y-126800000D01*
X102586885Y-126598326D01*
X102572634Y-126576998D01*
X102472646Y-126427355D01*
X101172645Y-125127355D01*
X101001675Y-125013115D01*
X100800000Y-124973000D01*
X92200000Y-124973000D01*
X92031785Y-125006460D01*
X91998325Y-125013115D01*
X91827355Y-125127355D01*
X90641710Y-126313000D01*
X88419253Y-126313000D01*
X88191658Y-125972380D01*
X87793591Y-125706400D01*
X87324038Y-125613000D01*
X87275962Y-125613000D01*
X86806409Y-125706400D01*
X86408342Y-125972380D01*
X86142362Y-126370447D01*
X86048962Y-126840000D01*
X85452000Y-126840000D01*
X85452000Y-119952000D01*
X123548000Y-119952000D01*
X123548000Y-138548000D01*
%TD*%
M02*
